<?xml version="1.0" encoding="UTF-8"?>
<!DOCTYPE svg PUBLIC "-//W3C//DTD SVG 1.1//EN" "http://www.w3.org/Graphics/SVG/1.1/DTD/svg11.dtd">
<!-- Creator: CorelDRAW 2020 (64-Bit) -->
<svg xmlns="http://www.w3.org/2000/svg" xml:space="preserve" width="162.508mm" height="258.917mm" version="1.1" style="shape-rendering:geometricPrecision; text-rendering:geometricPrecision; image-rendering:optimizeQuality; fill-rule:evenodd; clip-rule:evenodd"
viewBox="0 0 3175.69 5059.69"
 xmlns:xlink="http://www.w3.org/1999/xlink"
 xmlns:xodm="http://www.corel.com/coreldraw/odm/2003">
 <defs>
  <style type="text/css">
   <![CDATA[
    .fil3 {fill:black}
    .fil1 {fill:#B3B3B3}
    .fil11 {fill:#FF131F}
    .fil6 {fill:white}
    .fil4 {fill:#FEFEFE;fill-rule:nonzero}
    .fil8 {fill:black;fill-rule:nonzero}
    .fil7 {fill:black;fill-rule:nonzero}
    .fil2 {fill:#B3B3B3;fill-rule:nonzero}
    .fil5 {fill:red;fill-rule:nonzero}
    .fil10 {fill:#FF131F;fill-rule:nonzero}
    .fil9 {fill:white;fill-rule:nonzero}
    .fil0 {fill:black;fill-opacity:0.070588}
   ]]>
  </style>
 </defs>
 <g id="Layer_x0020_1">
  <metadata id="CorelCorpID_0Corel-Layer"/>
  <path class="fil0" d="M-0 2901.08l0 -345.98 85.92 0 0 270.94 225.69 0 -34.37 75.04 -277.24 0zm1021.33 -1446.93l357.44 819.13 268.65 0 146.07 -222.83 -259.49 0 -354.57 -816.26 -158.1 219.96zm488.04 -197.05l220.53 506.94 623.8 0 -332.81 508.66 -297.86 0 0 -0.57 186.74 -285.26 -335.1 0 -223.4 -514.39 158.1 -215.38zm-274.95 840.89l-114.56 175.28 -297.86 0 0 -0.57 294.43 -445.08 118 270.37zm-376.34 803.66l-91.65 0 -28.07 -62.44 -93.37 0 -42.39 -57.86 -54.42 120.29 -95.09 0 153.51 -345.98 96.81 0 154.66 345.98zm-154.09 -138.62l-46.97 -103.11 -45.83 103.11 92.8 0zm380.92 -56.14l104.25 0c14.89,-4.58 22.34,-18.33 21.77,-41.24 0,-18.9 -9.16,-30.93 -28.64,-35.52l-97.38 0 0 76.76zm34.37 68.74l-34.94 -50.41 0 175.85 -85.92 0 0 -345.98 206.79 0c60.72,10.88 91.65,43.54 92.22,99.1l0 20.62c-0.57,56.13 -30.93,89.93 -91.08,100.24l-87.07 0 0 0.57zm569.95 -12.6l-85.92 0 -59.57 -82.48 -0 220.53 -86.49 0 0 -345.98 85.92 0 146.07 207.93zm59.57 -207.36l85.92 0 0 345.41 -86.5 0 0 -211.94 -93.37 0 93.94 -133.47zm508.66 270.37l0 75.04 -262.92 0 0 -75.04 262.92 0zm-20.62 -137.47l0 73.89 -242.3 0 0 -73.9 242.3 0zm37.81 -132.9l-37.81 75.61 -242.3 0 0 -75.61 280.11 0zm246.31 74.47l-103.68 0 0 -74.47 312.19 0 -34.94 74.47 -86.5 0 0 270.94 -86.5 0 0 -270.94 -0.57 0zm654.73 271.52l-91.65 0 -28.07 -62.44 -93.37 0 -42.39 -57.86 -54.42 120.29 -95.09 0 153.51 -345.98 96.81 0 154.66 345.98zm-154.09 -138.62l-46.97 -103.11 -45.83 103.11 92.8 0z"/>
  <path class="fil1" d="M1092.95 2944.45c-65.59,108.8 -130.2,218.2 -196.5,326.57l-0.31 0.51 -0.49 0.35c-0.62,0.45 -1.3,0.81 -1.95,1.09 -2.33,1.11 -5.33,1.82 -7.87,2.15 -2.56,0.33 -5.64,0.41 -8.19,0.01 -7.6,-1.19 -15.2,-2.46 -22.76,-3.87 -37.4,-7.01 -73.62,-17.23 -109.74,-29.13 -3.02,-1 -6.16,-2.56 -8.91,-4.14 -5.72,-3.29 -11.29,-7.51 -16.14,-11.98 -3.8,-3.5 -7.68,-7.66 -10.74,-12.01l-38.67 24c3.34,5.01 7.13,9.71 11.23,14.12 6.99,7.53 14.87,14.28 23.35,20.07 4.04,2.76 8.21,5.32 12.55,7.57 4.22,2.18 8.57,4.07 13.08,5.56 38.05,12.59 76.23,23.27 115.63,30.65 8.06,1.51 16.15,2.89 24.26,4.13 5.42,0.82 10.87,0.98 16.34,0.58 8.72,-0.63 17.12,-2.54 25.12,-6.13 4.36,-1.95 8.43,-4.41 12.15,-7.4 4.16,-3.35 7.77,-7.3 10.56,-11.86 66.46,-108.64 131.22,-218.31 196.98,-327.38l-38.95 -23.46z"/>
  <path class="fil1" d="M711.32 3216.25c-83.39,-109.82 -172.18,-216.08 -249.59,-330.28 -6.74,-9.94 -11.39,-21.6 -14.93,-33.03 -4.13,-13.33 -7.08,-27.11 -10.22,-40.69 -2.17,-9.4 -2.93,-19.8 -3.24,-29.43 -0.3,-9.38 -0.15,-18.75 0.04,-28.13l-46.91 -0.9c-0.21,10.2 -0.4,20.34 -0.06,30.55 0.43,12.92 1.56,25.86 4.46,38.48 3.4,14.79 6.62,29.53 11.13,44.05 4.99,16.08 11.43,31.46 20.91,45.45 77.98,115.01 167.1,221.75 251.05,332.31l37.38 -28.37z"/>
  <path class="fil2" d="M2325.54 697.87c-11.2,36.28 -28.16,75.99 -35.36,114.39 -0.63,3.33 -1.23,6.72 -1.72,10.12 -7.88,52.86 -4.79,105.3 -8.06,157.6 -0.31,4.83 -1.03,9.75 -1.99,14.85 -2.02,10.77 -5.13,21.98 -7.28,33.45 -2.2,11.75 -3.4,23.92 -0.88,36.16 6.27,30.47 18,59.71 30.19,88.63 12.21,28.93 24.86,57.57 33.27,86.7 22.78,79.11 35.86,161.57 56.83,242.37 33.17,127.68 70.47,254.14 105.13,381.2 11.84,43.39 26.5,86.09 34.06,129.07 3,17.15 2.2,35.93 -1.08,53.44 -0.08,0.4 -0.15,0.81 -0.24,1.28l0.01 -0.03c-2.7,13.88 -6.55,30.52 -11,45.48 -2.21,7.47 -4.54,14.55 -6.93,20.6 -2.38,6.01 -4.87,11.06 -7.02,14.33 -23.12,34.85 -48.14,63.96 -75.53,91.42 -27.39,27.41 -57.2,53.11 -89.89,81.01 -36.29,30.98 -69.68,55.86 -99.95,76.32l7.72 11.37c30.23,-20.46 64.18,-45.69 101.13,-77.22 32.72,-27.92 62.8,-53.89 90.7,-81.81 27.9,-27.91 53.55,-57.82 77.25,-93.53 3.02,-4.56 5.73,-10.28 8.32,-16.85 7.77,-19.67 14.48,-47.08 18.67,-68.47l0.01 -0.04c0.08,-0.43 0.16,-0.88 0.24,-1.31 3.54,-18.87 4.47,-39.15 1.09,-58.37 -7.81,-44.39 -22.65,-87.43 -34.32,-130.27 -34.68,-127.23 -72,-253.67 -105.08,-381.05 -20.79,-79.93 -33.84,-162.49 -56.95,-242.7 -8.74,-30.34 -21.65,-59.45 -33.79,-88.26 -12.13,-28.78 -23.5,-57.24 -29.41,-86.04 -2.01,-9.56 -1.12,-19.91 0.94,-30.88 2,-10.69 5.12,-21.91 7.28,-33.45 1.02,-5.43 1.84,-10.96 2.16,-16.56 3.3,-53.38 0.3,-105.38 7.97,-156.4 0.46,-3.2 1.03,-6.4 1.63,-9.61 6.83,-36.65 23.53,-75.92 34.99,-112.84l-13.14 -4.07z"/>
  <path class="fil1" d="M1837 4434.63l-39.98 23.26c5.16,9.24 9.46,19.32 11.67,29.65 1.67,7.8 2.27,16.04 0.76,23.92 -1.02,5.33 -2.89,10.36 -5.91,14.88 -4.16,6.22 -9.83,10.61 -16.8,13.33 -8.05,3.13 -16.93,3.44 -25.36,1.87 -1.05,-0.2 -2.06,-0.41 -3.02,-0.65l-0.15 -0.03 -1.95 -0.51 -1.62 -0.48 -2.26 -0.75 -1.42 -0.51 -1.22 -0.47c-4.94,-1.96 -9.65,-4.49 -14.05,-7.37l-0.91 -0.61c-10.28,-6.85 -19.17,-15.99 -26.67,-25.81l-0.3 0.22c-5.75,-8.16 -11.31,-16.48 -16.7,-24.99 -28.35,-44.75 -58.6,-86.69 -92.69,-127.27l-34.84 29.45c32.8,39.04 61.73,79.13 89,122.21 5.95,9.4 12.11,18.6 18.48,27.62l-0.21 0.16c1.21,1.59 2.44,3.17 3.7,4.73 15.34,21.31 31.89,41.63 49.67,61.22 33.24,36.62 69.98,70.29 107.75,102.18l29.34 -34.9c-28.71,-24.23 -56.87,-49.55 -83.18,-76.51l0.98 -0.07c2.76,-0.24 5.51,-0.59 8.24,-1.07 16.52,-2.93 31.94,-10.63 43.95,-22.37 12.39,-12.11 20.46,-27.98 23.63,-44.97 2.59,-13.93 1.96,-28.34 -1,-42.16 -3.26,-15.17 -9.3,-29.68 -16.91,-43.18z"/>
  <path class="fil3" d="M2420.83 1297.98c-30.54,-149.56 -56.34,-302.23 -67.34,-454.55 -1.84,-25.55 -0.21,-52.09 4.51,-77.28 1.64,-8.74 3.68,-17.41 6.14,-25.96 11.71,-40.68 21.25,-81.96 29.04,-123.55 13.43,-73.16 44.4,-321.78 30.45,-385.62 -21.2,-97.04 -101.48,-150.79 -198.77,-129.11 -101.61,22.65 -204.12,50.02 -304.74,76.97 -104.69,28.07 -209.22,56.38 -314.55,81.99 -148.35,36.08 -295.68,77.12 -445.39,107.3 -131.14,25.54 -319.91,23.8 -425.83,109.95 -102.71,83.54 -165.92,197.59 -149,332.02 10.37,82.38 30.78,159.02 57.08,237.57 11.03,32.6 22.64,64.96 32.33,98 4.83,16.48 9.24,33.16 12.68,49.98 3.04,14.84 5.37,30.12 6.08,45.27 3.7,79.51 1.66,158.9 -2.25,238.35 -3.93,79.84 -9.56,159.56 -12.48,239.46 -2.48,68 -10.56,138.8 -23.11,205.75 -4.03,21.49 -8.66,42.92 -14.17,64.08 -4.78,18.36 -10.28,36.77 -17.08,54.49 -28.65,74.63 -58.92,148.64 -87.96,223.12 -32,82.07 -62.42,164.58 -89.43,248.44 -9.54,29.62 -20.31,58.85 -30.15,88.38 -25.46,77.37 -59.69,185.94 9.97,250.29 69.43,64.15 216.7,124.89 258.13,178.75 52.05,67.67 -67.16,139.2 -8.88,216.74 90.41,120.29 186.61,240.72 278.79,360.28 175.59,227.75 350.72,458.65 528.96,684.07 73.08,92.42 110.67,94.51 128.97,214.25 4.93,32.25 15.98,117.18 52.05,134.28 48.9,23.18 81.34,1.84 134.76,37.21 65.38,43.29 115.58,97.45 186.05,141.65 158.09,99.16 205.52,107.78 386.58,112.26 124.65,3.08 255.12,-4.86 379.99,-10.72 87.85,-4.12 164.18,-37.45 178.52,-133.97 10.13,-68.14 -30.11,-137.63 -101.72,-150.32 -45.9,-8.13 -96.8,-1.2 -142.22,7.63 -45.76,9.13 -90.54,21.13 -135.54,33.34 -139.94,37.9 -259.42,62.11 -404.27,28.68 -120.9,-27.9 -214.21,-101.23 -273.72,-209.36 -118.44,-215.24 -241.96,-427.48 -367.19,-638.82 -122.22,-206.16 -246.28,-411.59 -367.07,-618.55 -65.08,-111.51 -44.56,-264.86 56.43,-348.72 61.36,-50.95 222.57,-69.06 303.88,-86.4 63.58,-13.89 127.53,-31.61 186.42,-59.78 149.28,-71.39 292.49,-154.26 435.57,-237.14 36.15,-20.94 70.92,-44.34 105.65,-67.54 96.33,-64.37 191.45,-116.06 292.14,-172.45 98.03,-54.9 115.53,-223 83.76,-316.41 -14.21,-41.79 -29.23,-78.33 -43.04,-121.99 -55.5,-175.6 -101.96,-351.87 -139.03,-532.28zm-47.52 9.72c43.88,213.59 102.92,443.61 179.22,647.73 23.02,61.59 21.23,139.35 -2.09,201.12 -24.11,63.84 -64.95,75.03 -122.26,107.25 -79.95,44.95 -151.62,85.86 -228.13,136.99 -33.83,22.61 -67.79,45.5 -103.02,65.9 -141.93,82.23 -284.13,164.5 -432.19,235.34 -55.22,26.42 -116.15,43.12 -175.85,56.16 -102.58,21.86 -258.34,33.36 -336.09,106.93 -109.24,103.38 -131.54,270.58 -55.82,399.93 124,211.82 250.67,422.14 375.78,633.32 125.82,212.5 246.68,423.58 366.86,639.29 52.25,93.78 149.58,170.61 250.73,204.16 130.88,43.41 273.92,34.36 405.87,1.55 66.29,-16.49 309.33,-98.63 362.97,-38.62 46.83,52.39 23.05,136.53 -45.72,158.65 -44.5,14.32 -144.79,13.8 -193.27,16.01 -120.75,5.51 -364.85,18.68 -474.91,-25.94 -86.34,-35.01 -173.64,-98.62 -244.79,-158.06 -50.55,-42.23 -86.22,-76.94 -151.12,-85.88 -14.94,-2.06 -59.58,-2.04 -66.66,-17.09 -25.07,-53.26 -17.14,-128.72 -49.2,-190.09 -27.89,-53.38 -74.21,-92.28 -111.44,-138.99 -75.42,-96.66 -810.93,-1044.06 -813.97,-1055.13 -5.34,-19.41 21.57,-64.29 28.08,-84.05 40.01,-121.57 -53.69,-165.43 -146.69,-219.31 -39.69,-22.99 -135.7,-72.71 -150.11,-117.8 -15.71,-49.18 8.5,-123.37 23.43,-168.7 9.89,-29.69 20.71,-59.06 30.3,-88.84 26.7,-82.94 56.81,-164.54 88.46,-245.71 29.07,-74.56 59.35,-148.65 88.04,-223.35 7.46,-19.42 13.48,-39.52 18.73,-59.64 5.8,-22.25 10.66,-44.77 14.89,-67.36 13.01,-69.42 21.36,-142.36 23.96,-212.89 2.94,-79.68 8.5,-159.21 12.42,-238.84 3.98,-81.02 6.03,-161.91 2.27,-242.99 -0.82,-17.71 -3.46,-35.39 -7.02,-52.75 -5.57,-27.21 -13.4,-54.06 -21.87,-80.51 -7.87,-24.58 -16.46,-48.89 -24.73,-73.34 -30.75,-91.92 -72.95,-231.31 -50.64,-327.21 17.36,-74.61 63.45,-134.83 121.15,-184.12 94.07,-80.36 272.81,-78.73 391.62,-101.43l19.25 -3.68c150.4,-30.31 298.26,-71.49 447.28,-107.69 105.71,-25.68 210.6,-54.11 315.66,-82.26 55,-14.72 301.8,-83.73 340.94,-80.42 72.25,6.11 107.89,67.08 104.98,136.19 -4.61,109.58 -13.29,218.21 -33.11,326.19 -7.52,40.09 -16.69,79.86 -27.99,119.06 -2.89,10.03 -5.28,20.2 -7.2,30.45 -5.5,29.38 -7.38,59.88 -5.23,89.68 11.17,154.59 37.23,309.04 68.22,460.8z"/>
  <polygon class="fil4" points="890.89,2796.4 891.5,2795.64 821.33,2743.45 722.1,2949.62 723.6,2950.74 892.41,2796.34 891.5,2795.64 890.89,2796.4 890.25,2795.72 726,2945.95 822.07,2746.42 890.32,2797.2 890.89,2796.4 890.25,2795.72 "/>
  <g id="_2360738176000">
   <path class="fil5" d="M1796.05 4711.67c17.64,0 33.62,7.16 45.18,18.72 11.56,11.56 18.71,27.54 18.71,45.18 0,17.64 -7.16,33.62 -18.71,45.18 -11.56,11.56 -27.54,18.71 -45.18,18.71 -17.64,0 -33.62,-7.15 -45.18,-18.71 -11.56,-11.56 -18.71,-27.54 -18.71,-45.18 0,-17.64 7.15,-33.62 18.72,-45.18 11.56,-11.56 27.54,-18.72 45.18,-18.72zm40.79 23.1c-10.44,-10.44 -24.86,-16.9 -40.79,-16.9 -15.93,0 -30.35,6.46 -40.79,16.9 -10.44,10.44 -16.9,24.86 -16.9,40.79 0,15.93 6.46,30.35 16.9,40.79 10.44,10.44 24.86,16.9 40.79,16.9 15.93,0 30.35,-6.46 40.79,-16.9 10.44,-10.44 16.89,-24.86 16.89,-40.79 0,-15.93 -6.46,-30.35 -16.89,-40.79z"/>
   <path class="fil3" d="M1818.97 4746.82c-2.87,5.25 -5.59,10.46 -8.13,15.61 -2.56,5.16 -4.87,10.32 -6.94,15.53 -2.08,5.19 -3.87,10.43 -5.41,15.71 -1.53,5.29 -2.71,10.68 -3.54,16.19l-11.62 0c0.77,-4.91 1.86,-9.81 3.28,-14.71 1.42,-4.9 3.09,-9.78 5,-14.68 1.91,-4.9 4.05,-9.82 6.43,-14.76 2.37,-4.94 4.9,-9.94 7.57,-14.97l-32.47 0 0 -9.47 45.83 0 0 5.55z"/>
  </g>
  <g id="_2360738173408">
   <path class="fil5" d="M2126.4 4931.91c17.64,0 33.62,7.15 45.18,18.71 11.56,11.56 18.71,27.54 18.71,45.18 0,17.64 -7.16,33.62 -18.71,45.18 -11.56,11.56 -27.54,18.71 -45.18,18.71 -17.64,0 -33.61,-7.15 -45.17,-18.71 -11.56,-11.56 -18.71,-27.54 -18.71,-45.18 0,-17.64 7.15,-33.62 18.71,-45.18 11.56,-11.56 27.53,-18.71 45.17,-18.71zm40.79 23.1c-10.44,-10.44 -24.86,-16.89 -40.79,-16.89 -15.93,0 -30.35,6.46 -40.79,16.89 -10.44,10.44 -16.89,24.86 -16.89,40.79 0,15.93 6.46,30.35 16.89,40.79 10.44,10.44 24.86,16.89 40.79,16.89 15.93,0 30.35,-6.46 40.79,-16.89 10.44,-10.44 16.89,-24.86 16.89,-40.79 0,-15.93 -6.46,-30.35 -16.89,-40.79z"/>
   <path class="fil3" d="M2149.43 5008.02c0,3.44 -0.57,6.6 -1.7,9.43 -1.13,2.82 -2.69,5.27 -4.7,7.33 -2.01,2.06 -4.39,3.66 -7.15,4.78 -2.76,1.14 -5.75,1.7 -8.98,1.7 -3.44,0 -6.61,-0.67 -9.49,-2.01 -2.89,-1.34 -5.37,-3.33 -7.46,-5.98 -2.09,-2.64 -3.7,-5.94 -4.86,-9.88 -1.14,-3.93 -1.71,-8.51 -1.71,-13.7 0,-6.35 0.75,-11.98 2.27,-16.9 1.52,-4.9 3.59,-9.01 6.24,-12.32 2.65,-3.33 5.76,-5.84 9.34,-7.56 3.56,-1.73 7.43,-2.6 11.57,-2.6 2.58,0 4.93,0.18 7.05,0.54 2.12,0.35 3.82,0.83 5.1,1.44l0 9.99c-1.64,-0.83 -3.37,-1.53 -5.23,-2.1 -1.84,-0.57 -3.97,-0.86 -6.35,-0.86 -2.68,0 -5.16,0.54 -7.41,1.63 -2.27,1.08 -4.23,2.66 -5.86,4.75 -1.65,2.09 -2.94,4.68 -3.88,7.76 -0.93,3.07 -1.42,6.63 -1.45,10.64l0.29 0c1.47,-2.27 3.45,-4.05 5.94,-5.35 2.52,-1.31 5.45,-1.96 8.83,-1.96 3,0 5.7,0.47 8.11,1.45 2.4,0.98 4.46,2.37 6.16,4.21 1.72,1.83 3.04,4.06 3.95,6.69 0.93,2.63 1.39,5.59 1.39,8.87zm-11.18 0.91c0,-1.97 -0.25,-3.77 -0.7,-5.4 -0.46,-1.63 -1.16,-3.02 -2.11,-4.18 -0.93,-1.17 -2.12,-2.07 -3.54,-2.71 -1.4,-0.64 -3.09,-0.95 -4.99,-0.95 -1.91,0 -3.59,0.34 -5.04,1.03 -1.45,0.69 -2.66,1.58 -3.66,2.69 -1,1.11 -1.73,2.4 -2.22,3.82 -0.49,1.43 -0.75,2.91 -0.75,4.41 0,1.63 0.25,3.3 0.7,4.99 0.46,1.71 1.17,3.27 2.12,4.67 0.96,1.41 2.19,2.55 3.66,3.46 1.49,0.91 3.25,1.37 5.29,1.37 1.81,0 3.43,-0.34 4.83,-1.01 1.4,-0.67 2.58,-1.6 3.51,-2.77 0.95,-1.18 1.67,-2.58 2.16,-4.18 0.49,-1.61 0.75,-3.36 0.75,-5.24z"/>
  </g>
  <g id="_2360738175520">
   <path class="fil5" d="M2756 4700.01c17.64,0 33.62,7.15 45.18,18.71 11.56,11.56 18.71,27.53 18.71,45.17 0,17.64 -7.15,33.62 -18.71,45.18 -11.56,11.56 -27.54,18.71 -45.18,18.71 -17.64,0 -33.62,-7.15 -45.18,-18.71 -11.56,-11.56 -18.71,-27.54 -18.71,-45.18 0,-17.64 7.15,-33.62 18.71,-45.17 11.56,-11.56 27.54,-18.71 45.18,-18.71zm40.79 23.1c-10.44,-10.44 -24.86,-16.89 -40.79,-16.89 -15.93,0 -30.35,6.46 -40.79,16.89 -10.44,10.44 -16.9,24.86 -16.9,40.79 0,15.93 6.46,30.35 16.9,40.79 10.44,10.44 24.86,16.89 40.79,16.89 15.93,0 30.35,-6.46 40.79,-16.89 10.44,-10.44 16.9,-24.86 16.9,-40.79 0,-15.93 -6.46,-30.35 -16.9,-40.79z"/>
   <path class="fil3" d="M2735.73 4795.98l0 -10.66c4.5,3.04 9.06,4.54 13.68,4.54 4.65,0 8.41,-1.17 11.23,-3.56 2.84,-2.37 4.26,-5.53 4.26,-9.5 0,-3.88 -1.43,-6.91 -4.33,-9.08 -2.89,-2.17 -7.02,-3.25 -12.41,-3.25 -1.85,0 -5.6,0.18 -11.25,0.57l2.45 -36.06 33.76 0 0 9.47 -24.53 0 -1.14 17.17c2.2,-0.13 4.19,-0.19 5.97,-0.19 7.27,0 12.9,1.86 16.87,5.6 3.97,3.72 5.96,8.83 5.96,15.3 0,6.79 -2.29,12.24 -6.82,16.34 -4.54,4.1 -10.79,6.14 -18.73,6.14 -6.69,0 -11.69,-0.93 -14.97,-2.83z"/>
  </g>
  <g id="_2360738175664">
   <path class="fil5" d="M986.9 2886.81c17.64,0 33.62,7.15 45.18,18.71 11.56,11.56 18.71,27.54 18.71,45.18 0,17.64 -7.15,33.62 -18.71,45.18 -11.56,11.56 -27.54,18.71 -45.18,18.71 -17.64,0 -33.61,-7.15 -45.17,-18.71 -11.56,-11.56 -18.71,-27.54 -18.71,-45.18 0,-17.64 7.15,-33.62 18.71,-45.18 11.56,-11.56 27.53,-18.71 45.17,-18.71zm40.79 23.1c-10.44,-10.44 -24.86,-16.9 -40.79,-16.9 -15.93,0 -30.35,6.46 -40.79,16.9 -10.44,10.44 -16.9,24.86 -16.9,40.79 0,15.93 6.46,30.35 16.9,40.79 10.44,10.44 24.86,16.89 40.79,16.89 15.93,0 30.35,-6.46 40.79,-16.89 10.44,-10.44 16.9,-24.86 16.9,-40.79 0,-15.93 -6.46,-30.35 -16.9,-40.79z"/>
   <path class="fil3" d="M966.17 2982.47l0 -10.43c4.48,3.54 9.5,5.31 15.12,5.31 4.56,0 8.21,-1.03 10.94,-3.1 2.73,-2.07 4.08,-4.88 4.08,-8.42 0,-7.77 -5.94,-11.67 -17.84,-11.67l-5.31 0 0 -8.9 5.08 0c10.54,0 15.82,-3.66 15.82,-10.99 0,-6.76 -4.11,-10.14 -12.32,-10.14 -4.6,0 -8.91,1.64 -12.96,4.92l0 -9.85c4.65,-2.61 10.16,-3.94 16.49,-3.94 6.09,0 10.97,1.54 14.64,4.61 3.66,3.05 5.5,6.97 5.5,11.75 0,9.03 -4.6,14.84 -13.78,17.42l0 0.2c4.95,0.47 8.85,2.2 11.72,5.17 2.87,2.99 4.3,6.71 4.3,11.17 0,6.16 -2.3,11.13 -6.92,14.9 -4.64,3.79 -10.73,5.67 -18.29,5.67 -6.79,0 -12.21,-1.23 -16.26,-3.67z"/>
  </g>
  <g id="_2360738175904">
   <path class="fil5" d="M2321.59 4555.92c17.64,0 33.61,7.15 45.17,18.71 11.56,11.56 18.71,27.54 18.71,45.18 0,17.64 -7.15,33.62 -18.71,45.18 -11.56,11.56 -27.53,18.71 -45.17,18.71 -17.64,0 -33.62,-7.15 -45.18,-18.71 -11.56,-11.56 -18.71,-27.54 -18.71,-45.18 0,-17.64 7.16,-33.62 18.71,-45.18 11.56,-11.56 27.54,-18.71 45.18,-18.71zm40.79 23.1c-10.44,-10.44 -24.86,-16.9 -40.79,-16.9 -15.93,0 -30.35,6.46 -40.79,16.9 -10.44,10.44 -16.89,24.86 -16.89,40.79 0,15.93 6.46,30.35 16.89,40.79 10.44,10.44 24.86,16.9 40.79,16.9 15.93,0 30.35,-6.46 40.79,-16.9 10.44,-10.44 16.89,-24.86 16.89,-40.79 0,-15.93 -6.46,-30.35 -16.89,-40.79z"/>
   <path class="fil3" d="M2337.4 4585.52l0 44.29 10.19 0 0 9.22 -10.19 0 0 15.07 -10.76 0 0 -15.07 -31.05 0 0 -9.32c2.81,-3.17 5.68,-6.58 8.64,-10.27 2.95,-3.67 5.79,-7.44 8.52,-11.28 2.73,-3.83 5.24,-7.69 7.57,-11.54 2.34,-3.87 4.3,-7.56 5.88,-11.1l11.2 0zm-10.76 44.29l0 -28.8c-3.47,6.26 -6.92,11.71 -10.32,16.36 -3.39,4.65 -6.56,8.8 -9.54,12.44l19.85 0z"/>
  </g>
  <g id="_2360738174320">
   <path class="fil5" d="M1555.27 4625.33c17.64,0 33.62,7.15 45.18,18.71 11.56,11.56 18.71,27.54 18.71,45.18 0,17.64 -7.15,33.62 -18.71,45.18 -11.56,11.56 -27.54,18.71 -45.18,18.71 -17.64,0 -33.62,-7.15 -45.18,-18.71 -11.56,-11.56 -18.71,-27.54 -18.71,-45.18 0,-17.64 7.16,-33.62 18.71,-45.18 11.56,-11.56 27.54,-18.71 45.18,-18.71zm40.79 23.1c-10.44,-10.44 -24.86,-16.9 -40.79,-16.9 -15.93,0 -30.35,6.46 -40.79,16.9 -10.44,10.44 -16.89,24.86 -16.89,40.79 0,15.93 6.46,30.35 16.89,40.79 10.44,10.44 24.86,16.9 40.79,16.9 15.93,0 30.35,-6.46 40.79,-16.9 10.44,-10.44 16.89,-24.86 16.89,-40.79 0,-15.93 -6.46,-30.35 -16.89,-40.79z"/>
   <path class="fil3" d="M1532.41 4704.41c0,-1.97 0.25,-3.88 0.74,-5.73 0.49,-1.86 1.24,-3.56 2.22,-5.13 1,-1.57 2.24,-2.97 3.74,-4.21 1.5,-1.24 3.25,-2.23 5.26,-3.01 -2.97,-1.66 -5.32,-3.78 -7.09,-6.38 -1.75,-2.61 -2.63,-5.49 -2.63,-8.64 0,-2.53 0.52,-4.85 1.57,-6.99 1.03,-2.14 2.47,-3.98 4.29,-5.55 1.85,-1.57 4,-2.77 6.48,-3.66 2.5,-0.88 5.21,-1.32 8.13,-1.32 2.97,0 5.7,0.46 8.22,1.34 2.5,0.9 4.67,2.12 6.5,3.69 1.83,1.57 3.27,3.41 4.28,5.55 1.03,2.14 1.53,4.44 1.53,6.94 0,3.15 -0.88,6.03 -2.63,8.64 -1.76,2.6 -4.08,4.72 -6.99,6.38 1.97,0.77 3.72,1.77 5.24,2.99 1.52,1.23 2.78,2.61 3.8,4.18 1.01,1.57 1.78,3.26 2.3,5.13 0.51,1.85 0.75,3.77 0.75,5.78 0,3 -0.56,5.75 -1.66,8.23 -1.13,2.48 -2.68,4.62 -4.69,6.38 -2,1.78 -4.42,3.15 -7.23,4.15 -2.79,0.98 -5.89,1.47 -9.27,1.47 -3.35,0 -6.42,-0.49 -9.21,-1.47 -2.79,-1 -5.19,-2.37 -7.21,-4.15 -2.03,-1.76 -3.61,-3.9 -4.73,-6.38 -1.14,-2.48 -1.7,-5.23 -1.7,-8.23zm10.81 -0.95c0,1.94 0.28,3.69 0.85,5.26 0.59,1.57 1.39,2.89 2.45,3.97 1.04,1.08 2.32,1.91 3.8,2.48 1.49,0.57 3.13,0.87 4.95,0.87 1.75,0 3.36,-0.3 4.83,-0.88 1.47,-0.59 2.73,-1.43 3.8,-2.53 1.06,-1.11 1.91,-2.43 2.52,-3.98 0.61,-1.53 0.9,-3.27 0.9,-5.17 0,-1.76 -0.27,-3.41 -0.85,-4.96 -0.59,-1.53 -1.39,-2.89 -2.45,-4.03 -1.05,-1.16 -2.32,-2.06 -3.81,-2.73 -1.49,-0.67 -3.13,-1.01 -4.95,-1.01 -1.71,0 -3.33,0.31 -4.8,0.93 -1.49,0.62 -2.76,1.5 -3.84,2.63 -1.06,1.14 -1.9,2.48 -2.52,4.05 -0.61,1.57 -0.9,3.27 -0.9,5.13zm2.34 -31c0,1.44 0.26,2.76 0.77,4 0.51,1.22 1.19,2.29 2.05,3.2 0.87,0.91 1.88,1.62 3.04,2.12 1.16,0.53 2.42,0.77 3.75,0.77 1.34,0 2.6,-0.26 3.76,-0.79 1.16,-0.52 2.19,-1.24 3.07,-2.16 0.87,-0.91 1.57,-1.97 2.08,-3.2 0.51,-1.23 0.77,-2.55 0.77,-3.95 0,-1.43 -0.25,-2.77 -0.73,-4.02 -0.51,-1.24 -1.17,-2.32 -2.04,-3.2 -0.87,-0.9 -1.88,-1.6 -3.05,-2.11 -1.19,-0.51 -2.46,-0.77 -3.84,-0.77 -1.44,0 -2.74,0.26 -3.92,0.78 -1.17,0.52 -2.19,1.26 -3.03,2.19 -0.85,0.91 -1.5,1.99 -1.96,3.21 -0.47,1.22 -0.7,2.53 -0.7,3.9z"/>
  </g>
  <g id="_2360738177152">
   <path class="fil5" d="M820.22 1834.03c17.64,0 33.62,7.15 45.17,18.71 11.56,11.56 18.71,27.53 18.71,45.17 0,17.64 -7.15,33.62 -18.71,45.18 -11.56,11.56 -27.53,18.71 -45.17,18.71 -17.64,0 -33.62,-7.15 -45.18,-18.71 -11.56,-11.56 -18.71,-27.54 -18.71,-45.18 0,-17.64 7.15,-33.61 18.71,-45.17 11.56,-11.56 27.54,-18.71 45.18,-18.71zm40.79 23.1c-10.44,-10.44 -24.86,-16.9 -40.79,-16.9 -15.93,0 -30.35,6.46 -40.79,16.9 -10.44,10.44 -16.89,24.86 -16.89,40.79 0,15.93 6.46,30.35 16.89,40.79 10.44,10.44 24.86,16.9 40.79,16.9 15.93,0 30.35,-6.46 40.79,-16.9 10.44,-10.44 16.89,-24.86 16.89,-40.79 0,-15.93 -6.46,-30.35 -16.89,-40.79z"/>
   <path class="fil3" d="M805.85 1865.76l0 63.29 -10.02 0 0 -51.03c-1.81,1.3 -3.76,2.4 -5.85,3.3 -2.08,0.91 -4.46,1.71 -7.15,2.4l0 -8.55c1.68,-0.54 3.29,-1.12 4.83,-1.72 1.56,-0.6 3.1,-1.28 4.6,-2.03 1.52,-0.75 3.03,-1.59 4.58,-2.51 1.53,-0.93 3.12,-1.97 4.77,-3.16l4.23 0zm14.32 61l0 -9.42c4.04,3.2 8.57,4.79 13.64,4.79 4.11,0 7.41,-0.93 9.87,-2.8 2.46,-1.87 3.69,-4.4 3.69,-7.6 0,-7.01 -5.37,-10.53 -16.1,-10.53l-4.79 0 0 -8.03 4.58 0c9.52,0 14.28,-3.3 14.28,-9.92 0,-6.1 -3.71,-9.15 -11.12,-9.15 -4.15,0 -8.04,1.48 -11.7,4.44l0 -8.89c4.2,-2.36 9.17,-3.55 14.88,-3.55 5.5,0 9.9,1.39 13.22,4.16 3.3,2.76 4.97,6.29 4.97,10.61 0,8.15 -4.15,13.39 -12.43,15.72l0 0.18c4.46,0.43 7.98,1.99 10.58,4.67 2.59,2.7 3.88,6.06 3.88,10.08 0,5.56 -2.08,10.05 -6.25,13.45 -4.18,3.42 -9.68,5.11 -16.5,5.11 -6.13,0 -11.02,-1.1 -14.68,-3.31z"/>
  </g>
  <g id="_2360738176576">
   <path class="fil5" d="M790.58 645.14c17.64,0 33.62,7.15 45.18,18.71 11.56,11.56 18.71,27.54 18.71,45.18 0,17.64 -7.15,33.62 -18.71,45.18 -11.56,11.56 -27.54,18.71 -45.18,18.71 -17.64,0 -33.62,-7.15 -45.17,-18.71 -11.56,-11.56 -18.72,-27.54 -18.72,-45.18 0,-17.64 7.15,-33.62 18.72,-45.18 11.56,-11.56 27.53,-18.71 45.17,-18.71zm40.79 23.1c-10.44,-10.44 -24.86,-16.89 -40.79,-16.89 -15.93,0 -30.35,6.46 -40.79,16.89 -10.44,10.44 -16.9,24.86 -16.9,40.79 0,15.93 6.46,30.35 16.9,40.79 10.44,10.44 24.86,16.9 40.79,16.9 15.93,0 30.35,-6.46 40.79,-16.9 10.44,-10.44 16.89,-24.86 16.89,-40.79 0,-15.93 -6.46,-30.35 -16.89,-40.79z"/>
   <path class="fil3" d="M778.91 676.83l0 63.29 -10.02 0 0 -51.03c-1.81,1.3 -3.76,2.4 -5.85,3.3 -2.08,0.91 -4.46,1.71 -7.15,2.4l0 -8.55c1.68,-0.54 3.28,-1.12 4.83,-1.72 1.56,-0.6 3.1,-1.28 4.6,-2.03 1.51,-0.75 3.03,-1.59 4.58,-2.51 1.53,-0.93 3.12,-1.98 4.78,-3.16l4.23 0zm12.9 61.86l0 -9.62c4.07,2.74 8.18,4.09 12.35,4.09 4.2,0 7.59,-1.06 10.14,-3.21 2.56,-2.14 3.84,-4.99 3.84,-8.57 0,-3.51 -1.3,-6.23 -3.9,-8.19 -2.61,-1.96 -6.33,-2.93 -11.2,-2.93 -1.67,0 -5.05,0.16 -10.15,0.51l2.21 -32.54 30.47 0 0 8.55 -22.14 0 -1.03 15.5c1.99,-0.12 3.78,-0.17 5.39,-0.17 6.56,0 11.64,1.68 15.22,5.05 3.58,3.36 5.38,7.97 5.38,13.81 0,6.13 -2.06,11.05 -6.16,14.75 -4.1,3.7 -9.74,5.54 -16.9,5.54 -6.04,0 -10.55,-0.84 -13.51,-2.55z"/>
  </g>
  <g id="_2360738178160">
   <path class="fil5" d="M1565.5 4147.49c15.48,0 29.49,6.27 39.63,16.42 10.14,10.14 16.42,24.16 16.42,39.63 0,15.48 -6.27,29.49 -16.42,39.63 -10.14,10.14 -24.15,16.42 -39.63,16.42 -15.47,0 -29.49,-6.28 -39.63,-16.42 -10.14,-10.14 -16.42,-24.15 -16.42,-39.63 0,-15.47 6.27,-29.49 16.42,-39.63 10.14,-10.14 24.16,-16.42 39.63,-16.42zm35.78 20.26c-9.16,-9.16 -21.81,-14.82 -35.78,-14.82 -13.97,0 -26.63,5.67 -35.78,14.82 -9.16,9.16 -14.82,21.81 -14.82,35.78 0,13.97 5.67,26.62 14.82,35.78 9.16,9.15 21.81,14.82 35.78,14.82 13.97,0 26.63,-5.66 35.78,-14.82 9.16,-9.16 14.82,-21.81 14.82,-35.78 0,-13.97 -5.67,-26.63 -14.82,-35.78z"/>
   <path class="fil3" d="M1585.66 4200.24c0,6.02 -0.64,11.18 -1.95,15.53 -1.3,4.34 -3.09,7.9 -5.37,10.7 -2.28,2.79 -4.95,4.85 -8,6.19 -3.07,1.33 -6.36,1.99 -9.88,1.99 -1.15,0 -2.3,-0.07 -3.46,-0.2 -1.16,-0.14 -2.26,-0.33 -3.31,-0.55 -1.06,-0.23 -2,-0.47 -2.86,-0.74 -0.85,-0.26 -1.56,-0.52 -2.12,-0.77l0 -8.76c0.59,0.36 1.32,0.73 2.19,1.1 0.86,0.39 1.81,0.72 2.82,1.02 1.03,0.29 2.09,0.53 3.2,0.7 1.1,0.19 2.18,0.29 3.21,0.29 2.38,0 4.54,-0.47 6.49,-1.39 1.95,-0.93 3.59,-2.29 4.97,-4.11 1.37,-1.82 2.42,-4.08 3.17,-6.77 0.74,-2.71 1.12,-5.83 1.12,-9.38l-0.17 0c-0.5,0.89 -1.16,1.73 -1.99,2.54 -0.83,0.8 -1.78,1.5 -2.84,2.1 -1.06,0.6 -2.25,1.07 -3.54,1.45 -1.3,0.36 -2.69,0.54 -4.18,0.54 -2.52,0 -4.85,-0.44 -7.03,-1.33 -2.16,-0.87 -4.04,-2.12 -5.64,-3.75 -1.59,-1.62 -2.84,-3.6 -3.75,-5.92 -0.9,-2.32 -1.36,-4.91 -1.36,-7.76 0,-3.13 0.52,-5.96 1.55,-8.49 1.05,-2.54 2.46,-4.68 4.28,-6.46 1.82,-1.78 3.97,-3.15 6.42,-4.11 2.46,-0.98 5.14,-1.46 8.02,-1.46 2.7,0 5.28,0.52 7.7,1.53 2.42,1.03 4.54,2.65 6.37,4.87 1.83,2.23 3.28,5.1 4.37,8.62 1.07,3.53 1.6,7.79 1.6,12.8zm-10.16 -6.42c0,-2.02 -0.26,-3.85 -0.77,-5.5 -0.52,-1.65 -1.24,-3.07 -2.16,-4.24 -0.92,-1.18 -2.02,-2.09 -3.3,-2.72 -1.26,-0.64 -2.66,-0.98 -4.16,-0.98 -1.35,0 -2.62,0.27 -3.84,0.82 -1.22,0.54 -2.28,1.33 -3.2,2.34 -0.9,1 -1.63,2.22 -2.16,3.65 -0.53,1.42 -0.79,3.01 -0.79,4.74 0,1.91 0.26,3.58 0.77,5.03 0.51,1.46 1.23,2.68 2.16,3.68 0.92,0.99 2.03,1.75 3.34,2.26 1.29,0.51 2.73,0.77 4.3,0.77 1.4,0 2.69,-0.26 3.88,-0.77 1.19,-0.52 2.22,-1.22 3.11,-2.11 0.87,-0.87 1.56,-1.92 2.08,-3.12 0.5,-1.2 0.74,-2.49 0.74,-3.85z"/>
  </g>
  <g id="_2360738178832">
   <path class="fil5" d="M576.14 3244.6c17.64,0 33.62,7.15 45.18,18.71 11.56,11.56 18.71,27.53 18.71,45.17 0,17.64 -7.15,33.62 -18.71,45.18 -11.56,11.56 -27.54,18.71 -45.18,18.71 -17.64,0 -33.62,-7.15 -45.18,-18.71 -11.56,-11.56 -18.71,-27.54 -18.71,-45.18 0,-17.64 7.15,-33.62 18.71,-45.17 11.56,-11.56 27.54,-18.71 45.18,-18.71zm40.79 23.1c-10.44,-10.44 -24.86,-16.89 -40.79,-16.89 -15.93,0 -30.35,6.46 -40.79,16.89 -10.44,10.44 -16.9,24.86 -16.9,40.79 0,15.93 6.46,30.35 16.9,40.79 10.44,10.44 24.86,16.89 40.79,16.89 15.93,0 30.35,-6.46 40.79,-16.89 10.44,-10.44 16.9,-24.86 16.9,-40.79 0,-15.93 -6.46,-30.35 -16.9,-40.79z"/>
   <path class="fil3" d="M562.48 3276.33l0 63.29 -10.02 0 0 -51.03c-1.81,1.3 -3.76,2.4 -5.85,3.3 -2.08,0.91 -4.46,1.71 -7.14,2.4l0 -8.55c1.68,-0.54 3.28,-1.12 4.83,-1.72 1.56,-0.6 3.1,-1.28 4.6,-2.03 1.52,-0.75 3.03,-1.59 4.58,-2.51 1.54,-0.93 3.12,-1.98 4.78,-3.16l4.23 0zm30.79 64.32c-6.44,0 -11.48,-2.62 -15.09,-7.9 -3.61,-5.26 -5.41,-12.88 -5.41,-22.84 0,-10.93 1.87,-19.2 5.64,-24.81 3.77,-5.61 9.21,-8.43 16.33,-8.43 13.61,0 20.41,10.58 20.41,31.74 0,10.48 -1.92,18.46 -5.76,23.97 -3.83,5.51 -9.21,8.27 -16.12,8.27zm1 -55.98c-7.52,0 -11.27,8.27 -11.27,24.81 0,15.49 3.68,23.22 11.05,23.22 7.25,0 10.87,-7.87 10.87,-23.6 0,-16.3 -3.55,-24.43 -10.65,-24.43z"/>
  </g>
  <g id="_2360738177680">
   <path class="fil5" d="M544.65 2685.81c17.64,0 33.62,7.15 45.18,18.71 11.56,11.56 18.71,27.54 18.71,45.18 0,17.64 -7.15,33.61 -18.71,45.17 -11.56,11.56 -27.54,18.71 -45.18,18.71 -17.64,0 -33.61,-7.15 -45.17,-18.71 -11.56,-11.56 -18.71,-27.53 -18.71,-45.17 0,-17.64 7.15,-33.62 18.71,-45.18 11.56,-11.56 27.53,-18.71 45.17,-18.71zm40.79 23.1c-10.44,-10.44 -24.86,-16.9 -40.79,-16.9 -15.93,0 -30.35,6.46 -40.79,16.9 -10.44,10.44 -16.9,24.86 -16.9,40.79 0,15.93 6.46,30.35 16.9,40.79 10.44,10.44 24.86,16.9 40.79,16.9 15.93,0 30.35,-6.46 40.79,-16.9 10.44,-10.44 16.9,-24.86 16.9,-40.79 0,-15.93 -6.46,-30.35 -16.9,-40.79z"/>
   <path class="fil3" d="M530.11 2718.06l0 63.28 -10.02 0 0 -51.02c-1.81,1.3 -3.76,2.4 -5.85,3.3 -2.08,0.91 -4.46,1.71 -7.15,2.4l0 -8.55c1.68,-0.54 3.28,-1.12 4.83,-1.72 1.56,-0.6 3.1,-1.28 4.6,-2.03 1.52,-0.75 3.03,-1.59 4.58,-2.51 1.53,-0.93 3.12,-1.97 4.78,-3.16l4.23 0zm52.1 63.28l-38.85 0 0 -4.79c0,-1.96 0.28,-3.8 0.82,-5.51 0.55,-1.71 1.28,-3.32 2.2,-4.83 0.93,-1.5 2,-2.93 3.24,-4.27 1.24,-1.34 2.56,-2.63 3.96,-3.89 1.42,-1.25 2.86,-2.46 4.32,-3.62 1.47,-1.16 2.92,-2.33 4.32,-3.51 1.33,-1.14 2.53,-2.22 3.62,-3.32 1.1,-1.07 2.03,-2.19 2.81,-3.34 0.78,-1.15 1.39,-2.36 1.81,-3.64 0.43,-1.28 0.65,-2.67 0.65,-4.17 0,-1.64 -0.25,-3.07 -0.75,-4.29 -0.52,-1.22 -1.21,-2.25 -2.12,-3.06 -0.9,-0.83 -1.97,-1.45 -3.21,-1.86 -1.24,-0.43 -2.59,-0.64 -4.07,-0.64 -2.52,0 -5.09,0.59 -7.72,1.77 -2.62,1.18 -5.14,2.95 -7.56,5.32l0 -9.64c1.27,-0.94 2.55,-1.76 3.85,-2.47 1.3,-0.71 2.64,-1.3 4.02,-1.77 1.37,-0.49 2.83,-0.83 4.35,-1.06 1.53,-0.24 3.15,-0.36 4.88,-0.36 2.8,0 5.34,0.37 7.6,1.1 2.27,0.74 4.22,1.81 5.84,3.24 1.61,1.43 2.85,3.2 3.73,5.34 0.89,2.12 1.32,4.56 1.32,7.34 0,2.51 -0.31,4.76 -0.93,6.75 -0.62,2 -1.49,3.86 -2.62,5.6 -1.13,1.72 -2.52,3.36 -4.13,4.92 -1.6,1.55 -3.42,3.15 -5.39,4.79 -1.68,1.36 -3.33,2.67 -5,3.95 -1.65,1.28 -3.14,2.53 -4.46,3.76 -1.33,1.23 -2.4,2.45 -3.21,3.67 -0.82,1.22 -1.24,2.45 -1.24,3.68l0 0.22 27.94 0 0 8.59z"/>
  </g>
  <g id="_2360738182144">
   <path class="fil5" d="M2419.1 2014.35c17.64,0 33.62,7.15 45.17,18.71 11.56,11.56 18.71,27.53 18.71,45.17 0,17.64 -7.15,33.62 -18.71,45.18 -11.56,11.56 -27.53,18.71 -45.17,18.71 -17.64,0 -33.62,-7.16 -45.18,-18.71 -11.56,-11.56 -18.71,-27.54 -18.71,-45.18 0,-17.64 7.15,-33.62 18.71,-45.17 11.56,-11.56 27.54,-18.71 45.18,-18.71zm40.79 23.1c-10.44,-10.44 -24.86,-16.89 -40.79,-16.89 -15.93,0 -30.35,6.46 -40.79,16.89 -10.44,10.44 -16.89,24.86 -16.89,40.79 0,15.93 6.46,30.35 16.89,40.79 10.44,10.44 24.86,16.89 40.79,16.89 15.93,0 30.35,-6.46 40.79,-16.89 10.44,-10.44 16.89,-24.86 16.89,-40.79 0,-15.93 -6.46,-30.35 -16.89,-40.79z"/>
   <path class="fil3" d="M2426.8 2043.17l0 70.12 -11.1 0 0 -56.54c-2.01,1.44 -4.16,2.66 -6.48,3.66 -2.3,1.01 -4.95,1.89 -7.92,2.66l0 -9.47c1.86,-0.6 3.64,-1.24 5.35,-1.91 1.73,-0.67 3.43,-1.42 5.09,-2.25 1.68,-0.83 3.36,-1.76 5.08,-2.77 1.7,-1.03 3.46,-2.19 5.29,-3.5l4.68 0z"/>
  </g>
  <g id="_2360738181424">
   <path class="fil5" d="M1656.51 2825.21c17.64,0 33.62,7.15 45.18,18.71 11.56,11.56 18.71,27.54 18.71,45.18 0,17.64 -7.15,33.62 -18.71,45.18 -11.56,11.56 -27.54,18.71 -45.18,18.71 -17.64,0 -33.62,-7.15 -45.18,-18.71 -11.56,-11.56 -18.71,-27.54 -18.71,-45.18 0,-17.64 7.15,-33.62 18.71,-45.18 11.56,-11.56 27.54,-18.71 45.18,-18.71zm40.79 23.1c-10.44,-10.44 -24.86,-16.89 -40.79,-16.89 -15.93,0 -30.35,6.46 -40.79,16.89 -10.44,10.44 -16.9,24.86 -16.9,40.79 0,15.93 6.46,30.35 16.9,40.79 10.44,10.44 24.86,16.89 40.79,16.89 15.93,0 30.35,-6.46 40.79,-16.89 10.44,-10.44 16.9,-24.86 16.9,-40.79 0,-15.93 -6.46,-30.35 -16.9,-40.79z"/>
   <path class="fil3" d="M1678.04 2923.97l-43.05 0 0 -5.31c0,-2.17 0.31,-4.21 0.91,-6.11 0.6,-1.9 1.42,-3.68 2.43,-5.36 1.03,-1.66 2.22,-3.25 3.59,-4.73 1.37,-1.49 2.84,-2.92 4.39,-4.31 1.57,-1.39 3.17,-2.73 4.79,-4.02 1.63,-1.29 3.23,-2.58 4.78,-3.88 1.47,-1.26 2.81,-2.47 4.02,-3.68 1.23,-1.19 2.25,-2.43 3.12,-3.7 0.87,-1.27 1.54,-2.61 2.01,-4.04 0.47,-1.42 0.72,-2.95 0.72,-4.62 0,-1.81 -0.28,-3.4 -0.83,-4.75 -0.57,-1.35 -1.34,-2.5 -2.35,-3.39 -0.99,-0.91 -2.19,-1.6 -3.56,-2.06 -1.37,-0.47 -2.87,-0.7 -4.5,-0.7 -2.79,0 -5.65,0.65 -8.56,1.96 -2.91,1.31 -5.69,3.27 -8.38,5.9l0 -10.68c1.41,-1.04 2.82,-1.96 4.26,-2.74 1.43,-0.78 2.92,-1.44 4.46,-1.96 1.52,-0.54 3.13,-0.91 4.82,-1.17 1.7,-0.26 3.49,-0.39 5.4,-0.39 3.1,0 5.91,0.41 8.42,1.22 2.52,0.82 4.67,2.01 6.47,3.59 1.78,1.59 3.15,3.54 4.13,5.91 0.98,2.35 1.46,5.06 1.46,8.13 0,2.77 -0.34,5.27 -1.03,7.48 -0.69,2.22 -1.65,4.28 -2.91,6.2 -1.25,1.91 -2.79,3.72 -4.57,5.46 -1.78,1.71 -3.79,3.49 -5.97,5.3 -1.86,1.5 -3.69,2.95 -5.54,4.38 -1.83,1.42 -3.47,2.81 -4.94,4.16 -1.47,1.36 -2.66,2.71 -3.56,4.07 -0.91,1.35 -1.37,2.71 -1.37,4.08l0 0.25 30.95 0 0 9.52z"/>
  </g>
  <g id="_2360738181568">
   <path class="fil5" d="M2237.66 217.35c17.64,0 33.62,7.15 45.18,18.71 11.56,11.56 18.71,27.54 18.71,45.18 0,17.64 -7.15,33.62 -18.71,45.18 -11.56,11.56 -27.54,18.71 -45.18,18.71 -17.64,0 -33.62,-7.16 -45.17,-18.71 -11.56,-11.56 -18.71,-27.54 -18.71,-45.18 0,-17.64 7.15,-33.62 18.71,-45.18 11.56,-11.56 27.53,-18.71 45.17,-18.71zm40.79 23.1c-10.44,-10.44 -24.86,-16.89 -40.79,-16.89 -15.93,0 -30.35,6.46 -40.79,16.89 -10.44,10.44 -16.89,24.86 -16.89,40.79 0,15.93 6.46,30.35 16.89,40.79 10.44,10.44 24.86,16.89 40.79,16.89 15.93,0 30.35,-6.46 40.79,-16.89 10.44,-10.44 16.89,-24.86 16.89,-40.79 0,-15.93 -6.46,-30.35 -16.89,-40.79z"/>
   <path class="fil3" d="M2221.68 249.06l0 63.29 -10.02 0 0 -51.03c-1.81,1.3 -3.76,2.4 -5.85,3.3 -2.08,0.91 -4.46,1.71 -7.14,2.4l0 -8.55c1.68,-0.54 3.28,-1.12 4.83,-1.72 1.56,-0.6 3.1,-1.28 4.6,-2.03 1.52,-0.75 3.03,-1.59 4.58,-2.51 1.53,-0.93 3.12,-1.98 4.77,-3.16l4.23 0zm54.99 43.38c0,3.11 -0.51,5.95 -1.53,8.51 -1.02,2.55 -2.43,4.76 -4.24,6.62 -1.81,1.86 -3.97,3.3 -6.45,4.32 -2.49,1.03 -5.19,1.53 -8.1,1.53 -3.11,0 -5.97,-0.6 -8.56,-1.81 -2.61,-1.21 -4.85,-3.01 -6.73,-5.39 -1.89,-2.39 -3.34,-5.36 -4.39,-8.91 -1.03,-3.55 -1.55,-7.68 -1.55,-12.36 0,-5.73 0.68,-10.81 2.05,-15.25 1.37,-4.42 3.24,-8.13 5.63,-11.12 2.39,-3.01 5.2,-5.27 8.43,-6.82 3.21,-1.56 6.7,-2.34 10.44,-2.34 2.33,0 4.45,0.16 6.36,0.48 1.92,0.31 3.45,0.75 4.6,1.3l0 9.01c-1.48,-0.75 -3.04,-1.38 -4.72,-1.9 -1.66,-0.52 -3.58,-0.78 -5.73,-0.78 -2.42,0 -4.66,0.49 -6.69,1.47 -2.05,0.97 -3.82,2.4 -5.29,4.29 -1.49,1.89 -2.65,4.23 -3.5,7 -0.84,2.77 -1.28,5.98 -1.31,9.61l0.26 0c1.33,-2.05 3.11,-3.65 5.36,-4.83 2.27,-1.18 4.92,-1.77 7.97,-1.77 2.71,0 5.14,0.42 7.32,1.31 2.17,0.88 4.03,2.14 5.56,3.8 1.55,1.65 2.74,3.67 3.56,6.04 0.84,2.37 1.25,5.04 1.25,8zm-10.09 0.82c0,-1.78 -0.22,-3.4 -0.64,-4.88 -0.41,-1.47 -1.05,-2.72 -1.9,-3.77 -0.84,-1.06 -1.92,-1.87 -3.2,-2.44 -1.27,-0.57 -2.78,-0.86 -4.51,-0.86 -1.72,0 -3.24,0.31 -4.55,0.93 -1.31,0.62 -2.4,1.43 -3.3,2.43 -0.9,1 -1.56,2.16 -2,3.45 -0.44,1.3 -0.68,2.62 -0.68,3.98 0,1.47 0.22,2.97 0.64,4.51 0.41,1.55 1.06,2.95 1.92,4.21 0.87,1.27 1.97,2.3 3.3,3.12 1.34,0.83 2.93,1.24 4.78,1.24 1.63,0 3.09,-0.31 4.36,-0.91 1.27,-0.61 2.33,-1.44 3.16,-2.51 0.86,-1.06 1.5,-2.33 1.95,-3.78 0.44,-1.46 0.68,-3.03 0.68,-4.73z"/>
  </g>
  <g id="_2360738180080">
   <g>
    <rect class="fil3" transform="matrix(1.43322 -0.277149 0.277148 1.43322 2293.2 1280.75)" width="22.62" height="22.62"/>
    <rect class="fil6" transform="matrix(1.43322 -0.277149 0.277148 1.43322 2325.62 1274.48)" width="22.62" height="22.62"/>
    <rect class="fil3" transform="matrix(1.43322 -0.277149 0.277148 1.43322 2358.03 1268.21)" width="22.62" height="22.62"/>
    <rect class="fil6" transform="matrix(1.43322 -0.277149 0.277148 1.43322 2390.45 1261.95)" width="22.62" height="22.62"/>
    <rect class="fil3" transform="matrix(1.43322 -0.277149 0.277148 1.43322 2422.87 1255.68)" width="22.62" height="22.62"/>
    <rect class="fil6" transform="matrix(1.43322 -0.277149 0.277148 1.43322 2455.29 1249.41)" width="22.62" height="22.62"/>
    <rect class="fil6" transform="matrix(1.43322 -0.277149 0.277148 1.43322 2299.47 1313.17)" width="22.62" height="22.62"/>
    <rect class="fil3" transform="matrix(1.43322 -0.277149 0.277148 1.43322 2331.88 1306.9)" width="22.62" height="22.62"/>
    <rect class="fil6" transform="matrix(1.43322 -0.277149 0.277148 1.43322 2364.3 1300.63)" width="22.62" height="22.62"/>
    <rect class="fil3" transform="matrix(1.43322 -0.277149 0.277148 1.43322 2396.72 1294.36)" width="22.62" height="22.62"/>
    <rect class="fil6" transform="matrix(1.43322 -0.277149 0.277148 1.43322 2429.14 1288.1)" width="22.62" height="22.62"/>
    <rect class="fil3" transform="matrix(1.43322 -0.277149 0.277148 1.43322 2461.56 1281.83)" width="22.62" height="22.62"/>
   </g>
   <path class="fil7" d="M2489.4 1242.82l12.86 66.52 -197.89 38.26 -13.19 -68.2c65.95,-12.83 131.93,-25.52 197.89,-38.27l0.32 1.69zm2.89 33.07l-5.94 -30.73 -191.14 36.96 11.88 61.46 191.14 -36.96 -5.94 -30.73z"/>
  </g>
  <g id="_2360738180752">
   <path class="fil5" d="M583.3 1204.55c17.64,0 33.62,7.15 45.18,18.71 11.56,11.56 18.71,27.53 18.71,45.17 0,17.64 -7.15,33.62 -18.71,45.18 -11.56,11.56 -27.54,18.71 -45.18,18.71 -17.64,0 -33.62,-7.15 -45.17,-18.71 -11.56,-11.56 -18.71,-27.54 -18.71,-45.18 0,-17.64 7.15,-33.61 18.71,-45.17 11.56,-11.56 27.53,-18.71 45.17,-18.71zm40.79 23.1c-10.44,-10.44 -24.86,-16.9 -40.79,-16.9 -15.93,0 -30.35,6.46 -40.79,16.9 -10.44,10.44 -16.89,24.86 -16.89,40.79 0,15.93 6.46,30.35 16.89,40.79 10.44,10.44 24.86,16.9 40.79,16.9 15.93,0 30.35,-6.46 40.79,-16.9 10.44,-10.44 16.89,-24.86 16.89,-40.79 0,-15.93 -6.46,-30.35 -16.89,-40.79z"/>
   <path class="fil3" d="M567.57 1236.8l0 63.28 -10.02 0 0 -51.02c-1.82,1.29 -3.76,2.4 -5.85,3.3 -2.08,0.91 -4.46,1.71 -7.15,2.4l0 -8.55c1.68,-0.54 3.28,-1.12 4.83,-1.72 1.56,-0.6 3.1,-1.28 4.6,-2.03 1.52,-0.75 3.04,-1.59 4.59,-2.51 1.53,-0.93 3.12,-1.97 4.77,-3.15l4.23 0zm47.24 1.39l0 39.97 9.19 0 0 8.32 -9.19 0 0 13.6 -9.71 0 0 -13.6 -28.02 0 0 -8.41c2.54,-2.86 5.13,-5.94 7.8,-9.27 2.67,-3.31 5.23,-6.72 7.69,-10.18 2.46,-3.46 4.73,-6.94 6.84,-10.41 2.11,-3.49 3.88,-6.82 5.3,-10.02l10.11 0zm-9.71 39.97l0 -25.99c-3.14,5.64 -6.25,10.56 -9.31,14.76 -3.06,4.2 -5.93,7.94 -8.61,11.23l17.92 0z"/>
  </g>
  <g id="_2360738186464">
   <path class="fil5" d="M725.82 2823.16c17.64,0 33.62,7.15 45.18,18.71 11.56,11.56 18.71,27.54 18.71,45.18 0,17.64 -7.15,33.62 -18.71,45.17 -11.56,11.56 -27.54,18.72 -45.18,18.72 -17.64,0 -33.62,-7.15 -45.18,-18.72 -11.56,-11.56 -18.71,-27.53 -18.71,-45.17 0,-17.64 7.15,-33.62 18.71,-45.18 11.56,-11.56 27.54,-18.71 45.18,-18.71zm40.79 23.1c-10.44,-10.44 -24.86,-16.89 -40.79,-16.89 -15.93,0 -30.35,6.46 -40.79,16.89 -10.44,10.44 -16.9,24.86 -16.9,40.79 0,15.93 6.46,30.35 16.9,40.79 10.44,10.44 24.86,16.9 40.79,16.9 15.93,0 30.35,-6.46 40.79,-16.9 10.44,-10.44 16.89,-24.86 16.89,-40.79 0,-15.93 -6.46,-30.35 -16.89,-40.79z"/>
   <path class="fil3" d="M716.23 2855.41l0 63.28 -10.02 0 0 -51.02c-1.81,1.3 -3.76,2.4 -5.85,3.3 -2.08,0.91 -4.46,1.71 -7.15,2.4l0 -8.55c1.68,-0.54 3.29,-1.12 4.83,-1.72 1.56,-0.6 3.1,-1.28 4.6,-2.03 1.52,-0.75 3.03,-1.59 4.58,-2.5 1.53,-0.93 3.12,-1.98 4.77,-3.16l4.23 0zm35.57 0l0 63.28 -10.02 0 0 -51.02c-1.81,1.3 -3.76,2.4 -5.85,3.3 -2.08,0.91 -4.46,1.71 -7.15,2.4l0 -8.55c1.68,-0.54 3.28,-1.12 4.83,-1.72 1.56,-0.6 3.09,-1.28 4.6,-2.03 1.52,-0.75 3.03,-1.59 4.58,-2.5 1.53,-0.93 3.12,-1.98 4.77,-3.16l4.23 0z"/>
  </g>
  <polygon class="fil8" points="1170.49,313.63 1182.41,311.05 1180.02,271.38 1180.16,271.35 1194.42,308.45 1206.35,305.86 1204.51,250.87 1194.29,253.09 1196.91,293.47 1196.77,293.51 1182.06,255.74 1171.83,257.96 1174.09,298.42 1173.95,298.46 1159.61,260.6 1149.39,262.82 "/>
  <path id="1" class="fil8" d="M1215.17 303.54l11.11 -2.41 0.03 -11.72 14.07 -3.06 4.87 10.66 11.11 -2.42 -25.48 -49.86 -13.19 2.86 -2.53 55.94zm11.04 -48.16l0.15 -0.04 10.27 22.68 -10.37 2.25 -0.05 -24.89z"/>
  <path id="2" class="fil8" d="M1260.92 246.16l5.04 -1.09c4.82,-1.05 7.95,0.83 9,5.73 1.24,5.71 -1.17,8.55 -6.28,9.65l-4.44 0.97 -3.31 -15.26zm-0.9 47.37l10.67 -2.32 -4.86 -22.38 5.71 -1.23c4.3,-0.93 6.7,1.18 7.75,5.3l2.49 10.09c0.53,2.06 1.19,4.02 2.54,5.26l11.56 -2.51 -0.1 -0.44c-2.22,-0.6 -3.15,-3.43 -4.43,-8.96 -2.57,-11.16 -4.56,-14.92 -12.02,-14.31l-0.04 -0.15c5.73,-2.55 7.52,-7.9 5.99,-14.95 -1.95,-9.04 -8.29,-12.47 -17.02,-10.57l-19.72 4.27 11.48 52.91z"/>
  <polygon id="3" class="fil8" points="1308.42,282.72 1320.34,280.14 1317.96,240.48 1318.1,240.44 1332.35,277.54 1344.28,274.95 1342.45,219.96 1332.22,222.18 1334.84,262.56 1334.7,262.6 1319.99,224.83 1309.77,227.05 1312.02,267.51 1311.88,267.55 1297.54,229.69 1287.32,231.91 "/>
  <polygon id="4" class="fil8" points="1369.33,269.11 1357.85,216.2 1347.18,218.52 1358.66,271.42 "/>
  <path id="5" class="fil8" d="M1402.9 225c-1.67,-7.71 -5.2,-18.65 -20.47,-15.34 -16.01,3.46 -15.53,15.31 -12.05,31.38 3.49,16.09 7.95,27.06 23.96,23.59 14,-3.03 14.67,-13.49 12.2,-24.91l-10.67 2.32c2.47,11.4 0.09,14.02 -3.76,14.85 -4.59,1 -7.45,-1.41 -10.91,-17.41 -3.25,-14.97 -3.17,-20.65 2.25,-21.82 4.81,-1.04 7.09,1.95 8.76,9.66l10.67 -2.32z"/>
  <polygon id="6" class="fil8" points="1405.49,205.45 1416.97,258.36 1427.64,256.04 1424.23,240.33 1426.85,233.48 1442.45,252.82 1454.46,250.22 1431.9,223.47 1441.37,197.68 1429.8,200.18 1420.91,224.29 1420.77,224.33 1416.16,203.14 "/>
  <path id="7" class="fil8" d="M1474.47 245.47l18 -3.9c12.45,-2.7 14.97,-10.78 13.17,-19.08 -1.52,-7.04 -6.26,-10.66 -12.3,-10.2l-0.04 -0.15c4.95,-2.62 6.73,-7.59 5.5,-13.29 -2.2,-10.15 -9.2,-12.05 -17.95,-10.15l-17.86 3.87 11.48 52.91zm0.9 -47.37l3.85 -0.84c5.27,-1.14 8.11,0.18 9.21,5.22 1.08,4.97 -1.16,7.55 -7.01,8.81l-3.04 0.66 -3.01 -13.86zm4.62 21.26l4.59 -1c4.66,-1 8.53,0.02 9.86,6.16 1.34,6.15 -1.74,8.76 -6.85,9.86l-4.15 0.91 -3.45 -15.93z"/>
  <path id="8" class="fil8" d="M1516.51 188.89l5.04 -1.09c4.82,-1.05 7.95,0.83 9,5.73 1.24,5.71 -1.17,8.55 -6.28,9.65l-4.44 0.97 -3.31 -15.26zm-0.9 47.37l10.67 -2.32 -4.86 -22.38 5.71 -1.23c4.3,-0.93 6.7,1.18 7.75,5.3l2.49 10.09c0.53,2.06 1.19,4.02 2.54,5.26l11.56 -2.51 -0.1 -0.44c-2.22,-0.6 -3.15,-3.43 -4.43,-8.96 -2.57,-11.16 -4.56,-14.92 -12.02,-14.31l-0.04 -0.15c5.73,-2.55 7.52,-7.9 5.99,-14.95 -1.95,-9.04 -8.29,-12.47 -17.02,-10.57l-19.72 4.27 11.48 52.91z"/>
  <polygon id="9" class="fil8" points="1567.94,224.6 1556.46,171.7 1545.8,174.02 1557.27,226.91 "/>
  <path id="10" class="fil8" d="M1576.36 222.63l16.81 -3.64c14.16,-3.07 16.32,-12.38 12.26,-31.11 -3.36,-15.57 -8.23,-25.14 -23.05,-21.93l-17.49 3.79 11.47 52.89zm0.9 -47.35l4.52 -0.98c8.15,-1.77 10.45,4.17 13.05,16.17 3.12,14.38 2.64,19.37 -4.76,20.98l-4.74 1.03 -8.06 -37.2z"/>
  <path id="11" class="fil8" d="M1643.96 168.73c-2.32,-10.74 -8.37,-15.73 -20.07,-13.18 -13.63,2.96 -15.81,12.97 -11.96,30.75 3.97,18.3 8.68,27.52 21.8,24.67 4.96,-1.07 8.21,-3.64 9.82,-8.33l0.15 -0.04 1.06 4.89 7.86 -1.69 -6.19 -28.53 -17.26 3.74 1.71 7.85 7.04 -1.52 1.18 5.41c1.23,5.71 -2.25,9.34 -4.77,9.88 -6.15,1.34 -9.07,-6.4 -11.83,-19.15 -2.86,-13.19 -1.94,-18.97 3.24,-20.1 4.3,-0.93 7.16,3.65 8,7.57l10.23 -2.21z"/>
  <polygon id="12" class="fil8" points="1647.99,151.11 1659.47,204.02 1689.77,197.44 1687.86,188.7 1668.23,192.95 1665.15,178.74 1682.94,174.87 1681.03,166.14 1663.26,169.99 1660.56,157.54 1679.45,153.45 1677.55,144.7 "/>
  <g id="_2360738187280">
   <path class="fil7" d="M2430.39 3206.09c22.58,0 43.04,9.17 57.85,23.98l0.04 0.04c11.68,11.68 19.85,26.88 22.78,43.86l63.12 10.87 -62.28 10.73c-1.8,19.58 -10.49,37.16 -23.63,50.3l-0.04 0c-14.82,14.81 -35.28,23.98 -57.85,23.98 -22.61,0 -43.09,-9.17 -57.9,-23.98 -13.14,-13.14 -21.83,-30.72 -23.63,-50.3l-62.28 -10.73 63.12 -10.87c2.93,-16.98 11.1,-32.17 22.78,-43.86l0 -0.04c14.81,-14.81 35.29,-23.98 57.9,-23.98zm28.56 113.16l-14.7 0 -26.67 -40.65c-1.56,-2.37 -2.65,-4.16 -3.25,-5.36l-0.17 0c0.23,2.28 0.35,5.78 0.35,10.46l0 35.55 -13.76 0 0 -64.68 15.71 0 25.66 39.37c1.17,1.78 2.25,3.54 3.25,5.28l0.18 0c-0.25,-1.49 -0.37,-4.47 -0.37,-8.88l0 -35.77 13.76 0 0 64.68zm13.79 -73.63c-10.83,-10.82 -25.8,-17.51 -42.35,-17.51 -16.53,0 -31.5,6.7 -42.33,17.53 -10.84,10.81 -17.53,25.79 -17.53,42.33 0,16.53 6.7,31.5 17.53,42.33 10.83,10.83 25.8,17.53 42.33,17.53 16.54,0 31.52,-6.69 42.35,-17.51 10.81,-10.85 17.51,-25.82 17.51,-42.35 0,-16.54 -6.69,-31.52 -17.51,-42.35z"/>
   <polygon class="fil5" points="2430.39,3114.87 2379.99,3188.2 2430.39,2992.14 2480.8,3188.2 "/>
  </g>
  <g id="_2360738189536">
   <path class="fil5" d="M2175.64 698.08c17.64,0 33.62,7.15 45.18,18.71 11.56,11.56 18.71,27.53 18.71,45.17 0,17.64 -7.15,33.62 -18.71,45.18 -11.56,11.56 -27.54,18.71 -45.18,18.71 -17.64,0 -33.62,-7.15 -45.18,-18.71 -11.56,-11.56 -18.71,-27.54 -18.71,-45.18 0,-17.64 7.15,-33.61 18.71,-45.17 11.56,-11.56 27.54,-18.71 45.18,-18.71zm40.79 23.1c-10.44,-10.44 -24.86,-16.9 -40.79,-16.9 -15.93,0 -30.35,6.46 -40.79,16.9 -10.44,10.44 -16.89,24.86 -16.89,40.79 0,15.93 6.46,30.35 16.89,40.79 10.44,10.44 24.86,16.9 40.79,16.9 15.93,0 30.35,-6.46 40.79,-16.9 10.44,-10.44 16.89,-24.86 16.89,-40.79 0,-15.93 -6.46,-30.35 -16.89,-40.79z"/>
   <path class="fil7" d="M2161.27 731.76l0 62.93 -9.96 0 0 -50.74c-1.8,1.29 -3.74,2.39 -5.82,3.28 -2.07,0.91 -4.44,1.7 -7.11,2.39l0 -8.5c1.67,-0.54 3.27,-1.11 4.81,-1.71 1.55,-0.6 3.08,-1.27 4.57,-2.02 1.51,-0.75 3.02,-1.58 4.56,-2.49 1.52,-0.92 3.11,-1.96 4.75,-3.14l4.21 0zm53.1 6.36c-2.58,4.72 -5.01,9.39 -7.29,14.01 -2.3,4.63 -4.37,9.26 -6.23,13.94 -1.86,4.66 -3.47,9.36 -4.85,14.09 -1.38,4.75 -2.43,9.58 -3.18,14.54l-10.43 0c0.69,-4.41 1.67,-8.81 2.94,-13.2 1.28,-4.39 2.77,-8.78 4.48,-13.17 1.72,-4.4 3.63,-8.81 5.77,-13.25 2.12,-4.44 4.4,-8.92 6.8,-13.43l-29.14 0 0 -8.5 41.13 0 0 4.98z"/>
  </g>
  <path class="fil9" d="M2478.08 1616.45c-17.04,-63.47 -33.67,-127.09 -48.47,-191.13 -2.99,-12.74 -5.95,-25.5 -8.87,-38.26l-13.44 3.1c11.44,49.64 23.16,99.13 35.95,148.44 6.98,27.19 14.25,54.31 21.51,81.44l-10.6 2.85 26.54 29.88 7.98 -39.15 -10.6 2.85z"/>
  <path class="fil8" d="M517.22 787.69l-0.36 -17.21c-0.3,-14.48 -9.03,-18.39 -28.21,-17.99 -15.92,0.33 -26.25,3.28 -25.93,18.44l0.37 17.89 54.13 -1.13zm-46.33 -9.95l-0.1 -4.63c-0.17,-8.34 6.1,-9.46 18.38,-9.71 14.71,-0.31 19.52,1.11 19.68,8.69l0.1 4.85 -38.06 0.79zm1.22 -47.48l0.4 -5.14c0.38,-4.92 3.08,-7.37 8.07,-6.98 5.82,0.45 7.86,3.58 7.46,8.79l-0.35 4.54 -15.57 -1.21zm45.13 14.45l0.84 -10.89 -22.83 -1.77 0.45 -5.82c0.34,-4.39 3.06,-6.08 7.3,-5.9l10.38 0.5c2.12,0.09 4.18,0.02 5.77,-0.92l0.91 -11.79 -0.46 -0.04c-1.22,1.96 -4.19,2.03 -9.86,1.67 -11.43,-0.73 -15.6,0.09 -17.16,7.42l-0.15 -0.01c-0.81,-6.22 -5.43,-9.47 -12.61,-10.03 -9.23,-0.72 -14.33,4.37 -15.02,13.29l-1.56 20.11 53.98 4.18zm-49.34 -51.99l37.12 6.93c14.24,2.66 18.69,-5.07 20.32,-13.8 1.63,-8.72 -0.41,-17.67 -13.97,-20.2l-37.12 -6.93 -2 10.73 37.12 6.93c5.29,0.99 9.01,2.99 8.07,7.99 -0.93,4.99 -5.12,5.53 -10.41,4.54l-37.12 -6.93 -2 10.74zm64.36 -41.8l-52.58 -12.93 -2.61 10.6 52.58 12.93 2.61 -10.6zm2.28 -8.37l6.05 -16.12c5.09,-13.56 -1.57,-20.43 -19.53,-27.17 -14.91,-5.59 -25.6,-6.69 -30.92,7.51l-6.28 16.76 50.7 19.02zm-39.34 -26.42l1.63 -4.33c2.93,-7.81 9.17,-6.52 20.67,-2.21 13.78,5.17 17.72,8.27 15.05,15.37l-1.71 4.54 -35.64 -13.37zm10.21 -45.7l-4.07 9.14 10.8 4.82 1.6 -3.6 1.11 0.49c2.56,1.14 4.53,3.43 3.87,6.04l4.85 2.16c2.61,-7.72 -1.81,-11.77 -9.16,-15.04l-9 -4.01zm37.52 7.28l1.89 1.13c8.58,5.16 16.02,3.97 22.39,-6.63 6.09,-10.14 5.27,-18.78 -4.55,-24.68 -5.65,-3.4 -10.32,-3.73 -17.6,1.46l-7.46 5.34c-4.07,2.95 -6.34,2.74 -9.19,1.02 -2.73,-1.64 -4.73,-4.35 -2.19,-8.57 2.15,-3.57 5.58,-3.55 9.94,-0.93l5.39 -8.97 -1.3 -0.78c-8.9,-5.35 -16.11,-1.46 -21.11,6.86 -5.31,8.84 -4.02,17.14 5.01,22.57 7.73,4.65 13.48,2.89 21.35,-3.71 5.85,-4.89 8.7,-6.09 12.93,-3.55 3.9,2.34 4.08,6.17 2.36,9.03 -2.97,4.94 -6.51,4.49 -10.86,1.88l-1.36 -0.82 -5.63 9.36zm41.68 -91.18c-5.93,-5.2 -15.29,-11.9 -25.59,-0.15 -10.8,12.32 -3.37,21.55 9,32.41 12.37,10.85 22.5,17.01 33.3,4.7 9.45,-10.77 3.77,-19.59 -5.01,-27.29l-7.2 8.21c8.78,7.7 8.42,11.22 5.82,14.18 -3.1,3.54 -6.82,3.29 -19.14,-7.51 -11.52,-10.1 -14.83,-14.72 -11.18,-18.88 3.25,-3.71 6.87,-2.65 12.79,2.55l7.2 -8.21zm11.41 0.6c11.73,11.54 21.5,18.26 32.98,6.58 11.48,-11.68 4.59,-21.33 -7.15,-32.86 -11.73,-11.54 -21.5,-18.26 -32.98,-6.58 -11.48,11.68 -4.59,21.33 7.15,32.86zm7.65 -7.79c-10.33,-10.15 -13.59,-14.84 -9.07,-19.44 4.52,-4.6 9.26,-1.42 19.59,8.73 10.38,10.21 13.59,14.84 9.07,19.44 -4.52,4.6 -9.21,1.47 -19.59,-8.73zm22.19 -45.72l3.99 -3.27c3.81,-3.12 7.46,-2.87 10.62,1.01 3.7,4.52 2.85,8.15 -1.2,11.47l-3.52 2.88 -9.9 -12.09zm20.76 42.59l8.45 -6.92 -14.51 -17.72 4.52 -3.7c3.4,-2.79 6.5,-1.99 9.31,1.2l6.82 7.85c1.4,1.59 2.88,3.03 4.66,3.54l9.15 -7.49 -0.29 -0.35c-2.26,0.47 -4.37,-1.62 -8.03,-5.97 -7.37,-8.76 -10.85,-11.21 -17.22,-7.27l-0.1 -0.12c3.94,-4.89 3.09,-10.47 -1.47,-16.04 -5.86,-7.16 -13.06,-7.34 -19.99,-1.67l-15.61 12.78 34.3 41.9zm3.19 -71.08l29.99 45.08 8.33 -5.55 -21 -31.57 0.13 -0.08 32.12 24.17 10.35 -6.89 -29.99 -45.08 -8.33 5.55 20.54 30.87 -0.13 0.08 -31.53 -23.56 -10.48 6.97zm40.62 -26.25l25.86 47.57 27.25 -14.81 -4.27 -7.86 -17.66 9.6 -6.95 -12.79 15.99 -8.69 -4.27 -7.86 -15.99 8.69 -6.08 -11.19 16.99 -9.23 -4.27 -7.86 -26.59 14.45zm47.43 -15.92l4.63 -2.27c4.42,-2.17 7.91,-1.1 10.12,3.39 2.58,5.24 0.92,8.59 -3.77,10.89l-4.08 2.01 -6.89 -14.02zm10.53 46.19l9.8 -4.82 -10.1 -20.55 5.24 -2.58c3.95,-1.94 6.79,-0.46 8.8,3.28l4.85 9.19c1,1.87 2.11,3.61 3.73,4.5l10.62 -5.22 -0.2 -0.41c-2.3,-0.05 -3.88,-2.57 -6.46,-7.64 -5.19,-10.21 -8.01,-13.38 -15.12,-10.99l-0.07 -0.13c4.94,-3.87 5.39,-9.5 2.21,-15.96 -4.08,-8.31 -11.05,-10.11 -19.08,-6.17l-18.11 8.9 23.88 48.59z"/>
  <path class="fil8" d="M884.25 1456.81l0.03 -12.21 -39.27 -6.15 0 -0.15 39.3 -5.99 0.03 -12.21 -54.12 -9.97 -0.02 10.46 40.03 6.08 -0 0.15 -40.05 6.29 -0.02 10.46 40.03 6.45 0 0.15 -40.05 5.91 -0.02 10.47 54.16 -9.75zm-0.01 -45.81l-0.37 -11.37 -11.53 -2.12 -0.47 -14.4 11.36 -2.88 -0.38 -11.37 -53.64 16.1 0.44 13.49 54.59 12.54zm-45.41 -19.52l-0.01 -0.15 24.16 -6.03 0.35 10.61 -24.5 -4.43zm-9.84 -16.28l8.93 -0.51 -0.67 -11.81 45.12 -2.58 -0.62 -10.9 -45.12 2.58 -0.68 -11.81 -8.93 0.51 1.97 34.52zm-2.13 -37.89l53.96 -4.42 -2.53 -30.91 -8.92 0.73 1.64 20.03 -14.51 1.19 -1.49 -18.14 -8.92 0.73 1.49 18.14 -12.7 1.04 -1.58 -19.27 -8.92 0.73 2.47 30.16zm3.98 -46.71l-0.55 -5.13c-0.53,-4.9 1.68,-7.81 6.65,-8.34 5.81,-0.62 8.38,2.08 8.94,7.28l0.49 4.52 -15.53 1.67zm47.01 5.93l-1.17 -10.86 -22.77 2.44 -0.62 -5.81c-0.47,-4.37 1.89,-6.53 6.1,-7.14l10.3 -1.41c2.1,-0.3 4.12,-0.74 5.51,-1.96l-1.26 -11.76 -0.45 0.05c-0.84,2.15 -3.74,2.77 -9.39,3.45 -11.37,1.37 -15.32,2.94 -15.51,10.44l-0.15 0.02c-1.94,-5.97 -7.07,-8.32 -14.23,-7.55 -9.2,0.99 -13.29,6.92 -12.33,15.82l2.15 20.06 53.84 -5.78zm-60.22 -49.23l8.85 -1.3 -1.72 -11.7 44.72 -6.57 -1.59 -10.8 -44.72 6.57 -1.72 -11.7 -8.85 1.3 5.02 34.21zm21.46 -40.61c16.17,-3.04 27.27,-7.21 24.24,-23.31 -3.03,-16.1 -14.88,-15.95 -31.06,-12.91 -16.17,3.04 -27.27,7.21 -24.24,23.31 3.03,16.1 14.88,15.95 31.06,12.91zm-2.02 -10.73c-14.23,2.68 -19.94,2.67 -21.14,-3.66 -1.19,-6.34 4.13,-8.42 18.36,-11.09 14.31,-2.69 19.95,-2.67 21.14,3.67 1.19,6.33 -4.05,8.4 -18.36,11.09zm19.22 -43.35l-2.58 -11.93 -39.68 2.38 -0.03 -0.15 37.11 -14.24 -2.58 -11.93 -55.01 1.81 2.21 10.23 40.4 -2.61 0.03 0.15 -37.79 14.69 2.21 10.23 40.48 -2.24 0.03 0.15 -37.87 14.32 2.21 10.23 50.84 -21.08zm-63.77 -36.02l52.4 -13.65 -7.82 -30.01 -8.66 2.26 5.07 19.45 -14.09 3.67 -4.59 -17.61 -8.66 2.26 4.59 17.61 -12.33 3.21 -4.88 -18.71 -8.66 2.26 7.63 29.28zm-4.11 -45.87l-1.51 -4.93c-1.45,-4.72 0.17,-7.98 4.96,-9.45 5.58,-1.71 8.62,0.45 10.16,5.45l1.33 4.35 -14.93 4.58zm47.28 -3.08l-3.2 -10.44 -21.89 6.71 -1.71 -5.58c-1.29,-4.21 0.62,-6.78 4.63,-8.16l9.85 -3.34c2.01,-0.7 3.9,-1.51 5.04,-2.97l-3.47 -11.31 -0.44 0.13c-0.41,2.27 -3.15,3.43 -8.57,5.16 -10.9,3.5 -14.48,5.79 -13.25,13.18l-0.14 0.04c-3.03,-5.49 -8.52,-6.83 -15.41,-4.72 -8.85,2.71 -11.74,9.31 -9.12,17.87l5.92 19.29 51.76 -15.87z"/>
  <path class="fil8" d="M2144.42 64.55l-1.75 -8.78 -18.97 3.78 -8.83 -44.33 -10.71 2.13 10.58 53.1 29.67 -5.91zm0.06 -28.08c2.13,16.32 5.68,27.63 21.92,25.51 16.24,-2.12 16.76,-13.97 14.63,-30.29 -2.13,-16.32 -5.68,-27.63 -21.92,-25.51 -16.24,2.12 -16.76,13.97 -14.63,30.29zm10.83 -1.41c-1.88,-14.36 -1.55,-20.06 4.84,-20.9 6.39,-0.83 8.17,4.59 10.05,18.95 1.89,14.44 1.55,20.06 -4.84,20.9 -6.39,0.83 -8.16,-4.52 -10.05,-18.95zm36.12 22.12l17.19 -0.93c14.46,-0.78 18.08,-9.64 17.04,-28.8 -0.86,-15.9 -4.15,-26.13 -19.3,-25.3l-17.87 0.97 2.93 54.06zm8.41 -46.63l4.62 -0.25c8.33,-0.45 9.66,5.78 10.32,18.05 0.8,14.69 -0.46,19.54 -8.03,19.95l-4.85 0.26 -2.06 -38.01zm70.24 7.1c0.35,-10.95 -4.31,-17.25 -16.28,-17.63 -13.95,-0.44 -18.49,8.74 -19.06,26.86 -0.6,18.78 1.74,28.89 15.16,29.31 5.08,0.16 8.85,-1.54 11.56,-5.7l0.15 0.01 -0.16 5 8.03 0.26 0.93 -29.26 -17.66 -0.56 -0.25 8.03 7.2 0.23 -0.18 5.55c-0.19,5.89 -4.44,8.57 -7.02,8.49 -6.29,-0.2 -7.24,-8.48 -6.83,-21.54 0.43,-13.44 2.72,-18.81 8.03,-18.64 4.39,0.14 6.06,5.25 5.93,9.25l10.46 0.33zm13.39 -15.12l-6.94 53.7 30.76 3.97 1.15 -8.88 -19.93 -2.58 1.87 -14.44 18.05 2.33 1.15 -8.87 -18.05 -2.33 1.63 -12.64 19.18 2.48 1.15 -8.88 -30.01 -3.88zm89.89 38.42c2.28,-7.55 4.51,-18.84 -10.45,-23.36 -15.68,-4.74 -21.02,5.84 -25.78,21.6 -4.76,15.75 -6.18,27.52 9.5,32.26 13.72,4.15 19.4,-4.67 22.78,-15.85l-10.45 -3.16c-3.38,11.18 -6.73,12.31 -10.51,11.16 -4.5,-1.36 -5.82,-4.85 -1.08,-20.53 4.43,-14.66 7.27,-19.59 12.57,-17.98 4.72,1.43 5.25,5.15 2.97,12.7l10.45 3.16zm7.21 12.66c-7.58,14.61 -11.14,25.91 3.39,33.46 14.54,7.55 21.73,-1.87 29.32,-16.48 7.58,-14.61 11.14,-25.91 -3.39,-33.46 -14.54,-7.55 -21.74,1.88 -29.32,16.48zm9.69 5.03c6.67,-12.85 10.2,-17.35 15.92,-14.37 5.72,2.97 4.08,8.44 -2.59,21.29 -6.71,12.92 -10.2,17.35 -15.92,14.38 -5.72,-2.97 -4.11,-8.37 2.6,-21.3zm53.61 9.86l4.03 3.21c3.86,3.07 4.37,6.69 1.25,10.6 -3.64,4.56 -7.37,4.5 -11.46,1.24l-3.56 -2.84 9.74 -12.21zm-37.28 29.24l8.54 6.81 14.28 -17.91 4.56 3.64c3.44,2.74 3.31,5.94 0.79,9.35l-6.24 8.31c-1.26,1.71 -2.36,3.45 -2.48,5.3l9.25 7.38 0.28 -0.36c-0.94,-2.11 0.67,-4.61 4.16,-9.1 7.02,-9.05 8.68,-12.96 3.49,-18.36l0.09 -0.12c5.61,2.82 10.89,0.82 15.38,-4.81 5.77,-7.23 4.43,-14.31 -2.56,-19.89l-15.77 -12.58 -33.76 42.33zm71.54 -11.01l-38.88 37.68 6.97 7.19 27.23 -26.39 0.11 0.11 -17.94 35.97 8.66 8.93 38.88 -37.68 -6.96 -7.19 -26.63 25.81 -0.11 -0.11 17.44 -35.28 -8.76 -9.04zm35.38 39.79l-44.99 30.12 17.26 25.77 7.44 -4.98 -11.18 -16.7 12.1 -8.1 10.12 15.12 7.44 -4.98 -10.13 -15.12 10.59 -7.09 10.76 16.07 7.44 -4.98 -16.84 -25.14zm20.98 48.9l2.39 4.57c2.28,4.37 1.3,7.88 -3.14,10.2 -5.17,2.71 -8.56,1.14 -10.99,-3.49l-2.11 -4.03 13.84 -7.24zm-45.91 11.71l5.06 9.68 20.29 -10.62 2.71 5.17c2.04,3.9 0.64,6.77 -3.06,8.88l-9.07 5.09c-1.84,1.05 -3.55,2.2 -4.4,3.85l5.49 10.48 0.4 -0.21c-0.01,-2.31 2.47,-3.95 7.47,-6.65 10.08,-5.45 13.18,-8.35 10.6,-15.39l0.13 -0.07c3.99,4.84 9.63,5.15 16.01,1.81 8.2,-4.29 9.83,-11.31 5.68,-19.23l-9.35 -17.87 -47.97 25.11z"/>
  <path class="fil8" d="M2501.91 956.08l-3.81 -16.79c-3.21,-14.12 -12.54,-16.2 -31.25,-11.96 -15.53,3.53 -25.06,8.49 -21.7,23.28l3.96 17.45 52.8 -11.99zm-47.38 -0.44l-1.02 -4.51c-1.85,-8.14 4.07,-10.49 16.05,-13.21 14.35,-3.26 19.34,-2.84 21.02,4.56l1.07 4.73 -37.12 8.43zm-14.99 -33.56l53.54 -8.08 -4.63 -30.67 -8.85 1.33 3 19.87 -14.4 2.17 -2.72 -18 -8.85 1.34 2.72 18 -12.6 1.9 -2.89 -19.12 -8.85 1.34 4.52 29.92zm-5.58 -40.96l54.05 -3.26 -1.87 -30.96 -8.93 0.54 1.21 20.06 -14.53 0.88 -1.1 -18.17 -8.93 0.54 1.09 18.17 -12.72 0.77 -1.16 -19.3 -8.93 0.54 1.82 30.2zm5.63 -50.63l0 -5.16c0,-4.93 2.51,-7.58 7.51,-7.58 5.84,0.01 8.11,2.97 8.11,8.2l-0 4.55 -15.62 -0.01zm46.1 10.96l0.01 -10.92 -22.9 -0.02 0 -5.84c0,-4.4 2.58,-6.29 6.83,-6.44l10.39 -0.29c2.12,-0.07 4.17,-0.3 5.69,-1.36l0.01 -11.83 -0.46 0c-1.06,2.04 -4.02,2.35 -9.71,2.42 -11.45,0.14 -15.55,1.28 -16.54,8.71l-0.15 0c-1.29,-6.14 -6.14,-9.03 -13.34,-9.03 -9.25,-0.01 -13.96,5.45 -13.96,14.4l-0.02 20.17 54.14 0.04zm3.43 -90.52l-8.92 -0.66 -1.44 19.28 -45.07 -3.36 -0.81 10.89 53.99 4.03 2.25 -30.17zm-53.04 -11.54l53.73 6.72 3.85 -30.78 -8.88 -1.11 -2.5 19.94 -14.45 -1.81 2.26 -18.06 -8.88 -1.11 -2.26 18.06 -12.64 -1.58 2.4 -19.19 -8.88 -1.11 -3.76 30.02zm57.84 -25.71l1.93 -11.21 -10.86 -4.41 2.45 -14.2 11.71 -0.52 1.93 -11.21 -55.79 4.91 -2.3 13.3 50.92 23.33zm-40.52 -28.31l0.03 -0.15 24.88 -1.01 -1.81 10.46 -23.1 -9.3zm48.7 -16.91l2.32 -10.67 -21.12 -4.58 1.24 -5.71c2.19,-10.08 -1.32,-17.9 -12.28,-20.28 -7.93,-1.72 -16.66,0.26 -19.01,11.08l-4.05 18.68 52.91 11.48zm-42.74 -20.45l0.97 -4.45c1.16,-5.33 4.57,-6.77 9.76,-5.64 5.41,1.17 7.3,4.61 6.39,8.83l-1.03 4.74 -16.08 -3.49z"/>
  <path class="fil8" d="M2550.24 2370.13c9.67,13.32 18.19,21.56 31.44,11.94 13.25,-9.63 8.05,-20.28 -1.62,-33.59 -9.67,-13.32 -18.19,-21.56 -31.44,-11.94 -13.25,9.63 -8.05,20.28 1.62,33.59zm8.83 -6.42c-8.51,-11.72 -10.95,-16.88 -5.73,-20.67 5.22,-3.79 9.37,0.13 17.88,11.85 8.56,11.78 10.95,16.88 5.74,20.67 -5.22,3.79 -9.33,-0.07 -17.88,-11.85zm64.76 -17.23l-5.87 -6.76 -14.6 12.68 -29.64 -34.12 -8.24 7.16 35.5 40.88 22.84 -19.84zm4.24 -3.45l11.32 -12.97c9.52,-10.91 5.7,-19.68 -8.75,-32.3 -12,-10.47 -21.62,-15.24 -31.59,-3.82l-11.77 13.48 40.79 35.6zm-27.56 -38.54l3.04 -3.49c5.49,-6.28 10.87,-2.89 20.13,5.19 11.09,9.68 13.69,13.96 8.7,19.67l-3.19 3.66 -28.68 -25.03zm66.44 -8.68l5.94 -9.17 -20.18 -13.07 6.93 -10.7 20.18 13.07 5.94 -9.17 -45.44 -29.44 -5.94 9.17 17.38 11.26 -6.93 10.69 -17.37 -11.25 -5.94 9.17 45.44 29.44zm20.47 -32.5l4.77 -10.33 -9.34 -7.07 6.04 -13.08 11.45 2.53 4.77 -10.32 -55.16 -9.71 -5.66 12.25 43.14 35.72zm-31.8 -37.84l0.06 -0.14 24.29 5.46 -4.45 9.64 -19.9 -14.96zm60.42 -32.73l-8.43 -3 -6.48 18.22 -42.59 -15.14 -3.66 10.29 51.02 18.13 10.13 -28.51zm7.55 -34.34l-8.75 -1.89 -4.08 18.9 -44.18 -9.53 -2.3 10.67 52.92 11.42 6.38 -29.58zm-28.29 -60.01c-7.85,-0.75 -19.36,-0.72 -20.85,14.83 -1.56,16.31 9.87,19.46 26.25,21.03 16.38,1.57 28.2,0.65 29.77,-15.66 1.37,-14.27 -8.4,-18.1 -20.02,-19.21l-1.04 10.87c11.63,1.12 13.39,4.18 13.01,8.11 -0.45,4.68 -3.61,6.66 -19.92,5.1 -15.25,-1.46 -20.63,-3.28 -20.11,-8.79 0.47,-4.91 4.02,-6.17 11.87,-5.41l1.04 -10.87zm9.11 -2.78c16.45,0.41 28.18,-1.34 28.59,-17.72 0.41,-16.37 -11.21,-18.72 -27.66,-19.13 -16.45,-0.41 -28.18,1.34 -28.59,17.71 -0.41,16.37 11.21,18.72 27.66,19.13zm0.28 -10.92c-14.48,-0.36 -20.06,-1.57 -19.9,-8.01 0.16,-6.44 5.8,-7.36 20.28,-7 14.55,0.37 20.06,1.57 19.9,8.01 -0.16,6.44 -5.72,7.37 -20.28,7zm-19.05 -40.78l-0.21 -5.15c-0.19,-4.93 2.2,-7.68 7.2,-7.88 5.83,-0.23 8.22,2.64 8.43,7.86l0.18 4.55 -15.61 0.62zm46.5 9.09l-0.43 -10.91 -22.88 0.9 -0.23 -5.83c-0.17,-4.39 2.33,-6.39 6.56,-6.71l10.37 -0.71c2.12,-0.16 4.15,-0.47 5.63,-1.59l-0.47 -11.82 -0.45 0.02c-0.98,2.09 -3.92,2.51 -9.6,2.81 -11.44,0.61 -15.48,1.9 -16.17,9.37l-0.15 0.01c-1.53,-6.09 -6.5,-8.77 -13.69,-8.49 -9.25,0.37 -13.72,6.01 -13.37,14.95l0.8 20.16 54.1 -2.14zm-56.11 -36.77l53.88 -5.33 -0.98 -9.96 -37.73 3.73 -0.02 -0.15 36.42 -17.02 -1.23 -12.38 -53.88 5.33 0.98 9.96 36.9 -3.65 0.02 0.15 -35.61 16.78 1.24 12.53zm-4.56 -40.36l53.52 -8.22 -4.71 -30.66 -8.84 1.36 3.05 19.86 -14.39 2.21 -2.76 -17.99 -8.84 1.36 2.76 17.99 -12.59 1.93 -2.93 -19.12 -8.84 1.36 4.59 29.91zm0.37 -45.72l-1.03 -5.05c-0.98,-4.83 0.94,-7.93 5.84,-8.93 5.72,-1.17 8.54,1.28 9.59,6.4l0.91 4.46 -15.31 3.12zm47.36 1.49l-2.18 -10.7 -22.44 4.58 -1.17 -5.72c-0.88,-4.31 1.27,-6.68 5.4,-7.68l10.12 -2.37c2.06,-0.5 4.03,-1.13 5.3,-2.47l-2.36 -11.59 -0.45 0.09c-0.63,2.22 -3.47,3.11 -9.02,4.31 -11.19,2.44 -14.97,4.37 -14.46,11.85l-0.15 0.03c-2.49,-5.76 -7.82,-7.61 -14.88,-6.17 -9.07,1.85 -12.58,8.14 -10.79,16.91l4.03 19.77 53.05 -10.82z"/>
  <path class="fil8" d="M2067.66 2624.24l4.71 7.61 10.06 -6.22 23.76 38.45 9.29 -5.74 -23.76 -38.45 10.06 -6.22 -4.7 -7.61 -29.42 18.18zm61.88 25.41l9.29 -5.74 -12.64 -20.45 10.84 -6.7 12.64 20.45 9.29 -5.74 -28.46 -46.06 -9.29 5.74 10.88 17.61 -10.84 6.7 -10.88 -17.61 -9.29 5.74 28.46 46.06zm7.4 -68.22l28.46 46.06 26.39 -16.31 -4.7 -7.61 -17.1 10.56 -7.66 -12.39 15.48 -9.57 -4.71 -7.61 -15.48 9.57 -6.7 -10.84 16.45 -10.17 -4.7 -7.61 -25.74 15.91zm71.75 19.31l9.68 -5.98 -3.89 -11.06 12.26 -7.58 8.15 8.43 9.68 -5.98 -40.66 -38.52 -11.48 7.1 16.27 53.59zm-5.65 -49.1l0.13 -0.08 17.25 17.96 -9.03 5.58 -8.35 -23.46zm12.6 -18.84l39.05 39.52 11.93 -7.38 -17.89 -52.6 -9.61 5.94 14.21 38.29 -0.19 0.12 -27.56 -30.03 -9.94 6.14zm36.51 -22.56l28.46 46.06 26.39 -16.31 -4.7 -7.61 -17.1 10.56 -7.65 -12.39 15.48 -9.57 -4.7 -7.61 -15.48 9.57 -6.7 -10.84 16.45 -10.17 -4.7 -7.61 -25.74 15.91zm31.03 -19.18l28.46 46.06 8.52 -5.26 -19.93 -32.25 0.13 -0.08 31.29 25.24 10.58 -6.54 -28.46 -46.06 -8.51 5.26 19.49 31.54 -0.13 0.08 -30.72 -24.61 -10.71 6.62zm36.45 -22.53l19.85 32.12c7.61,12.32 16.33,10.41 23.88,5.75 7.55,-4.66 12.8,-12.18 5.54,-23.93l-19.85 -32.12 -9.29 5.74 19.85 32.12c2.83,4.58 3.85,8.68 -0.48,11.35 -4.32,2.67 -7.53,-0.07 -10.36,-4.65l-19.85 -32.12 -9.29 5.74zm35.29 -21.81l28.46 46.06 26.39 -16.31 -4.7 -7.61 -17.1 10.56 -7.66 -12.39 15.48 -9.57 -4.7 -7.61 -15.48 9.57 -6.7 -10.84 16.45 -10.17 -4.7 -7.61 -25.74 15.91z"/>
  <path class="fil8" d="M1517.63 2678.4l17.01 -2.64c14.31,-2.23 17.03,-11.4 14.09,-30.35 -2.45,-15.74 -6.74,-25.58 -21.72,-23.25l-17.69 2.75 8.32 53.5zm3.71 -47.24l4.57 -0.71c8.24,-1.28 10.18,4.79 12.07,16.93 2.26,14.54 1.49,19.49 -6,20.66l-4.8 0.74 -5.85 -37.62zm29.09 -13.05l12.92 52.58 30.12 -7.4 -2.14 -8.69 -19.52 4.8 -3.47 -14.14 17.68 -4.34 -2.14 -8.69 -17.68 4.34 -3.04 -12.37 18.78 -4.62 -2.14 -8.69 -29.38 7.22zm35.28 -8.91l16.25 51.65 9.55 -3 -11.38 -36.17 0.14 -0.04 24.11 32.16 11.86 -3.73 -16.25 -51.65 -9.55 3 11.13 35.37 -0.14 0.04 -23.71 -31.41 -12.01 3.78zm38.12 -12.33l3.3 8.32 10.99 -4.36 16.67 42.01 10.15 -4.03 -16.67 -42.01 11 -4.36 -3.3 -8.32 -32.14 12.75zm47.19 10.3c6.87,14.95 13.61,24.71 28.49,17.87 14.88,-6.84 11.87,-18.31 4.99,-33.26 -6.87,-14.95 -13.61,-24.71 -28.5,-17.87 -14.88,6.84 -11.86,18.31 -4.99,33.26zm9.92 -4.56c-6.05,-13.16 -7.43,-18.7 -1.57,-21.39 5.86,-2.69 9.17,1.96 15.22,15.12 6.08,13.23 7.43,18.7 1.57,21.4 -5.85,2.69 -9.13,-1.89 -15.22,-15.12zm18.65 -38.68l24.99 48.04 8.88 -4.62 -17.5 -33.64 0.13 -0.07 29.34 27.48 11.03 -5.74 -24.99 -48.03 -8.88 4.62 17.11 32.9 -0.13 0.07 -28.82 -26.81 -11.17 5.81zm49.38 -26.67l-8.72 4.92 5.81 10.3 3.43 -1.94 0.6 1.06c1.38,2.44 1.6,5.45 -0.49,7.15l2.61 4.62c6.7,-4.65 5.55,-10.53 1.6,-17.53l-4.84 -8.59zm26.4 27.78l1.14 1.88c5.19,8.56 12.33,10.97 22.9,4.56 10.11,-6.13 13.41,-14.16 7.47,-23.95 -3.42,-5.64 -7.4,-8.11 -16.25,-6.91l-9.08 1.26c-4.98,0.71 -6.88,-0.53 -8.61,-3.38 -1.65,-2.72 -2.16,-6.05 2.05,-8.61 3.57,-2.16 6.59,-0.54 9.23,3.8l8.95 -5.43 -0.79 -1.3c-5.39,-8.88 -13.58,-8.79 -21.88,-3.76 -8.82,5.35 -11.54,13.29 -6.07,22.31 4.68,7.72 10.59,8.83 20.62,6.65 7.46,-1.6 10.54,-1.34 13.1,2.88 2.36,3.89 0.74,7.36 -2.11,9.09 -4.93,2.99 -7.85,0.95 -10.49,-3.4l-0.83 -1.36 -9.34 5.66z"/>
  <path class="fil8" d="M1155.89 2785.58l9.49 -5.41 -11.91 -20.89 11.07 -6.31 11.91 20.88 9.49 -5.41 -26.82 -47.04 -9.49 5.41 10.25 17.99 -11.07 6.31 -10.25 -17.99 -9.49 5.41 26.82 47.04zm47.14 -25.51l-23.89 -48.59 -9.8 4.82 23.89 48.59 9.8 -4.82zm-1.22 -18.54l0.84 2.03c3.83,9.25 10.52,12.71 21.94,7.97 10.93,-4.53 15.4,-11.97 11.01,-22.55 -2.53,-6.09 -6.09,-9.13 -15.02,-9.29l-9.17 -0.14c-5.03,-0.05 -6.72,-1.56 -8,-4.65 -1.22,-2.94 -1.22,-6.31 3.33,-8.2 3.85,-1.6 6.6,0.47 8.54,5.16l9.67 -4.01 -0.58 -1.4c-3.98,-9.6 -12.09,-10.75 -21.06,-7.03 -9.53,3.95 -13.42,11.39 -9.38,21.13 3.46,8.33 9.13,10.34 19.37,9.7 7.61,-0.45 10.62,0.28 12.51,4.83 1.74,4.2 -0.38,7.38 -3.47,8.66 -5.32,2.21 -7.9,-0.25 -9.85,-4.95l-0.61 -1.47 -10.09 4.18zm73.75 -9.16l-2.69 -8.54 -18.45 5.8 -13.57 -43.11 -10.42 3.28 16.25 51.65 28.86 -9.08zm-2.24 -27.75c3.5,16.08 7.98,27.06 23.99,23.58 16,-3.48 15.52,-15.33 12.03,-31.41 -3.5,-16.08 -7.98,-27.06 -23.99,-23.57 -16,3.48 -15.52,15.33 -12.03,31.41zm10.67 -2.32c-3.08,-14.15 -3.23,-19.86 3.06,-21.23 6.3,-1.37 8.53,3.88 11.61,18.04 3.1,14.23 3.23,19.86 -3.06,21.23 -6.3,1.37 -8.51,-3.81 -11.61,-18.04zm37.47 19.86l10.84 -1.33 -2.63 -21.45 5.8 -0.71c10.24,-1.25 16.47,-7.14 15.11,-18.28 -0.99,-8.05 -5.74,-15.65 -16.73,-14.3l-18.97 2.32 6.58 53.74zm5.23 -47.09l4.52 -0.55c5.42,-0.66 7.89,2.09 8.54,7.36 0.67,5.49 -1.95,8.41 -6.24,8.94l-4.82 0.59 -2 -16.33zm42.08 -11.71l-9.99 0.53 0.63 11.81 3.94 -0.21 0.06 1.21c0.15,2.8 -0.99,5.6 -3.62,6.19l0.28 5.3c8.06,-1.19 9.65,-6.97 9.23,-15l-0.52 -9.84zm9.65 36.7l-0.03 2.2c-0.15,10.01 4.61,15.84 16.98,16.03 11.83,0.18 18.88,-4.87 19.05,-16.32 0.1,-6.6 -1.96,-10.8 -10.1,-14.49l-8.36 -3.76c-4.6,-2.04 -5.55,-4.1 -5.5,-7.44 0.05,-3.19 1.38,-6.27 6.31,-6.2 4.17,0.06 5.87,3.05 5.79,8.13l10.46 0.16 0.02 -1.52c0.16,-10.39 -6.83,-14.66 -16.54,-14.81 -10.31,-0.16 -16.84,5.13 -17,15.67 -0.13,9.02 4.28,13.11 13.93,16.59 7.17,2.61 9.64,4.47 9.57,9.4 -0.07,4.55 -3.29,6.62 -6.62,6.58 -5.76,-0.09 -7.15,-3.37 -7.08,-8.45l0.02 -1.59 -10.92 -0.16z"/>
  <path class="fil8" d="M543.57 1935.89c-7.52,-2.38 -18.78,-4.74 -23.49,10.16 -4.93,15.62 5.59,21.09 21.28,26.05 15.69,4.96 27.44,6.52 32.38,-9.1 4.32,-13.67 -4.43,-19.45 -15.57,-22.97l-3.29 10.41c11.13,3.52 12.22,6.88 11.03,10.64 -1.41,4.48 -4.92,5.76 -20.54,0.83 -14.61,-4.61 -19.49,-7.51 -17.83,-12.79 1.49,-4.7 5.22,-5.19 12.74,-2.82l3.29 -10.41zm44.71 -29.16l-8.67 -2.22 -4.81 18.73 -43.78 -11.24 -2.72 10.58 52.44 13.47 7.53 -29.31zm1.45 -5.26l2.26 -11.15 -10.73 -4.73 2.86 -14.12 11.72 -0.18 2.26 -11.15 -55.91 3.3 -2.68 13.23 50.22 24.79zm-39.68 -29.47l0.03 -0.15 24.9 -0.3 -2.11 10.4 -22.82 -9.96zm-5.2 -20.48l34.58 -8.89 21.06 3.23 1.66 -10.79 -21.06 -3.23 -30.33 -18.85 -1.79 11.69 19.54 10.67 -0.02 0.15 -21.77 3.87 -1.86 12.14zm62.92 -56.7l1.03 -10.87 -23.93 -2.27 1.2 -12.68 23.93 2.27 1.03 -10.87 -53.9 -5.1 -1.03 10.87 20.61 1.95 -1.2 12.68 -20.61 -1.95 -1.03 10.87 53.9 5.11zm4.91 -57.79l-54.02 -3.69 -0.74 10.89 54.02 3.69 0.74 -10.89zm2.1 -42.7l-8.94 -0.39 -0.85 19.32 -45.15 -1.98 -0.48 10.91 54.09 2.37 1.32 -30.23zm0.57 -39.49l-8.95 -0.09 -0.19 19.34 -45.19 -0.45 -0.11 10.92 54.14 0.54 0.3 -30.26z"/>
  <path class="fil8" d="M338.32 3020.78l48.8 -23.47 -4.73 -9.84 -14.49 6.97 -7.28 -0.96 15.19 -19.68 -5.32 -11.07 -20.78 28.17 -27.29 -3.2 5.13 10.66 25.53 3.04 0.07 0.14 -19.54 9.4 4.73 9.84zm-19.04 -39.83l50.18 -20.35 -3.76 -9.28 -35.14 14.25 -0.06 -0.14 30.12 -26.62 -4.67 -11.53 -50.18 20.35 3.76 9.28 34.36 -13.94 0.06 0.14 -29.41 26.16 4.73 11.67zm30.74 -71.76l-51.37 17.1 3.45 10.36 51.37 -17.1 -3.45 -10.36zm-46.26 -31.42c-7.63,2 -18.41,6.01 -14.44,21.12 4.16,15.84 15.98,14.86 31.89,10.67 15.91,-4.18 26.69,-9.13 22.53,-24.97 -3.64,-13.86 -14.13,-14.09 -25.43,-11.12l2.78 10.56c11.29,-2.97 14.01,-0.7 15.01,3.11 1.19,4.55 -1.09,7.5 -16.93,11.66 -14.81,3.89 -20.5,4.05 -21.9,-1.3 -1.25,-4.77 1.64,-7.17 9.27,-9.18l-2.78 -10.56zm-20.09 -5.22l53.14 -10.37 -2.09 -10.72 -15.78 3.08 -6.8 -2.77 19.67 -15.2 -2.35 -12.06 -27.23 22 -25.59 -10 2.26 11.61 23.93 9.4 0.03 0.15 -21.29 4.15 2.09 10.72zm-7.89 -43.45l53.69 -6.97 -3.99 -30.76 -8.87 1.15 2.59 19.93 -14.44 1.87 -2.34 -18.05 -8.87 1.15 2.34 18.05 -12.63 1.64 -2.49 -19.18 -8.87 1.15 3.89 30.01zm2.59 -52.44l-0.19 -5.15c-0.18,-4.93 2.23,-7.67 7.23,-7.85 5.84,-0.21 8.22,2.66 8.4,7.89l0.16 4.55 -15.61 0.56zm46.47 9.26l-0.39 -10.91 -22.89 0.82 -0.21 -5.84c-0.16,-4.4 2.35,-6.38 6.59,-6.69l10.37 -0.67c2.12,-0.15 4.16,-0.45 5.63,-1.57l-0.42 -11.82 -0.46 0.02c-0.99,2.08 -3.93,2.49 -9.61,2.77 -11.44,0.56 -15.49,1.85 -16.21,9.31l-0.15 0.01c-1.51,-6.09 -6.46,-8.8 -13.66,-8.54 -9.25,0.33 -13.75,5.96 -13.43,14.9l0.72 20.16 54.11 -1.94zm-1.58 -42.14l0.44 -18.42c0.31,-12.74 -6.95,-17.08 -15.44,-17.29 -7.2,-0.17 -11.84,3.58 -12.82,9.55l-0.15 -0c-1.39,-5.42 -5.79,-8.33 -11.63,-8.47 -10.38,-0.25 -13.87,6.11 -14.09,15.06l-0.44 18.27 54.13 1.3zm-45.83 -12.03l0.1 -3.94c0.13,-5.38 2.08,-7.84 7.24,-7.72 5.08,0.12 7.06,2.9 6.92,8.89l-0.07 3.11 -14.18 -0.34zm21.76 0.52l0.11 -4.7c0.12,-4.78 2.02,-8.3 8.31,-8.15 6.29,0.15 8.1,3.76 7.98,8.99l-0.1 4.24 -16.3 -0.39zm-19.65 -45.3l0.42 -5.14c0.4,-4.91 3.12,-7.35 8.1,-6.94 5.82,0.48 7.84,3.61 7.42,8.83l-0.37 4.54 -15.57 -1.28zm45.06 14.66l0.9 -10.88 -22.82 -1.88 0.48 -5.82c0.36,-4.39 3.08,-6.06 7.33,-5.87l10.38 0.55c2.12,0.1 4.18,0.04 5.78,-0.9l0.97 -11.79 -0.45 -0.04c-1.23,1.95 -4.2,2.01 -9.87,1.62 -11.43,-0.79 -15.6,0.01 -17.19,7.34l-0.15 -0.01c-0.78,-6.23 -5.38,-9.5 -12.56,-10.09 -9.22,-0.76 -14.35,4.3 -15.09,13.22l-1.66 20.1 53.96 4.44zm-23.27 -45.34c16.23,2.69 28.09,2.58 30.77,-13.58 2.68,-16.16 -8.51,-20.09 -24.74,-22.78 -16.24,-2.69 -28.09,-2.58 -30.77,13.58 -2.68,16.16 8.5,20.09 24.74,22.78zm1.79 -10.77c-14.29,-2.37 -19.65,-4.34 -18.6,-10.7 1.06,-6.36 6.76,-6.49 21.05,-4.12 14.36,2.38 19.65,4.34 18.6,10.7 -1.05,6.36 -6.69,6.5 -21.05,4.12zm5.17 -32.24c16.07,3.53 27.92,4.03 31.43,-11.97 3.51,-16 -7.46,-20.5 -23.53,-24.03 -16.08,-3.53 -27.92,-4.03 -31.43,11.97 -3.51,16 7.46,20.5 23.53,24.03zm2.34 -10.67c-14.15,-3.11 -19.4,-5.35 -18.02,-11.64 1.38,-6.3 7.09,-6.13 21.24,-3.03 14.22,3.12 19.4,5.34 18.02,11.64 -1.38,6.29 -7.02,6.15 -21.24,3.03zm-18.84 -40.01l52.25 14.18 2.86 -10.54 -15.52 -4.21 -4.87 -5.49 24.36 -4.94 3.22 -11.86 -34.15 7.7 -18.54 -20.27 -3.1 11.42 17.31 19 -0.04 0.15 -20.93 -5.68 -2.86 10.54z"/>
  <path class="fil8" d="M1201.86 4016.82l-6.88 -8.48 -18.67 15.14 -8.03 -9.9 18.67 -15.14 -6.88 -8.48 -42.05 34.11 6.88 8.48 16.08 -13.04 8.03 9.9 -16.08 13.04 6.88 8.48 42.05 -34.11zm-33.77 -41.64l-42.05 34.11 6.88 8.48 42.05 -34.11 -6.88 -8.48zm-24.17 -29.8l-6.95 5.64 12.18 15.02 -35.1 28.47 6.88 8.48 42.05 -34.11 -19.06 -23.5zm-22.12 -27.27l-6.95 5.64 12.18 15.02 -35.1 28.47 6.88 8.48 42.05 -34.11 -19.06 -23.5zm-39.76 36.93l6.95 -5.64 -7.45 -9.19 35.1 -28.47 -6.88 -8.48 -35.1 28.47 -7.45 -9.19 -6.95 5.64 21.78 26.86zm-3 -46.68c12.78,-10.37 20.56,-19.31 10.24,-32.03 -10.32,-12.72 -20.68,-6.95 -33.46,3.41 -12.78,10.37 -20.56,19.31 -10.24,32.03 10.32,12.72 20.68,6.96 33.46,-3.41zm-6.88 -8.48c-11.25,9.12 -16.28,11.83 -20.34,6.83 -4.06,-5.01 -0.37,-9.37 10.88,-18.49 11.31,-9.17 16.28,-11.83 20.34,-6.83 4.06,5 0.43,9.32 -10.88,18.49zm0.63 -42.2l-6.88 -8.48 -16.78 13.61 -3.68 -4.54c-6.5,-8.01 -14.79,-10.17 -23.5,-3.1 -6.3,5.11 -10.22,13.17 -3.24,21.77l12.04 14.84 42.05 -34.11zm-42.69 20.56l-2.87 -3.54c-3.44,-4.24 -2.42,-7.8 1.7,-11.14 4.3,-3.49 8.16,-2.81 10.89,0.54l3.06 3.77 -12.78 10.37z"/>
  <path class="fil8" d="M1271.06 3255.02c-6.7,4.16 -15.83,11.16 -7.6,24.44 8.64,13.92 19.64,9.5 33.62,0.83 13.98,-8.68 22.83,-16.57 14.19,-30.49 -7.56,-12.18 -17.65,-9.31 -27.57,-3.15l5.76 9.28c9.92,-6.16 13.18,-4.79 15.26,-1.44 2.48,4 1.16,7.49 -12.75,16.12 -13.01,8.08 -18.4,9.9 -21.32,5.19 -2.6,-4.19 -0.54,-7.34 6.16,-11.5l-5.76 -9.28zm29.59 -20.21l-4.82 -10.3 -11.43 2.58 -6.1 -13.05 9.32 -7.12 -4.82 -10.31 -42.98 35.91 5.72 12.23 55.12 -9.94zm-49.43 -0.09l-0.06 -0.14 19.84 -15.05 4.49 9.62 -24.27 5.57zm15.08 -34.03l2.07 -0.74c9.43,-3.36 13.24,-9.86 9.09,-21.5 -3.96,-11.15 -11.16,-15.99 -21.95,-12.16 -6.22,2.21 -9.43,5.61 -10.05,14.52l-0.61 9.15c-0.31,5.02 -1.91,6.63 -5.05,7.75 -3,1.07 -6.36,0.9 -8.01,-3.75 -1.4,-3.93 0.8,-6.56 5.59,-8.27l-3.51 -9.86 -1.43 0.51c-9.79,3.48 -11.36,11.52 -8.1,20.67 3.46,9.72 10.69,13.99 20.62,10.45 8.5,-3.02 10.79,-8.58 10.68,-18.85 -0.06,-7.63 0.82,-10.59 5.46,-12.24 4.29,-1.52 7.36,0.76 8.47,3.91 1.93,5.43 -0.66,7.88 -5.45,9.58l-1.5 0.53 3.66 10.29zm3.43 -41.31l-1.92 -11.21 -11.71 -0.53 -2.43 -14.2 10.87 -4.4 -1.92 -11.21 -50.95 23.27 2.28 13.31 55.79 4.99zm-47.65 -13.15l-0.03 -0.15 23.11 -9.27 1.79 10.46 -24.88 -1.05zm40.99 -32.87l0.63 -17.2c0.53,-14.47 -7.96,-18.88 -27.14,-19.58 -15.91,-0.58 -26.4,1.77 -26.95,16.93l-0.65 17.88 54.11 1.97zm-45.68 -12.59l0.17 -4.62c0.3,-8.34 6.63,-9.09 18.9,-8.65 14.7,0.54 19.42,2.23 19.15,9.8l-0.18 4.85 -38.04 -1.39zm-2.63 -44.41l52.24 14.24 8.16 -29.92 -8.63 -2.35 -5.29 19.39 -14.05 -3.83 4.79 -17.56 -8.63 -2.35 -4.79 17.56 -12.29 -3.35 5.09 -18.66 -8.63 -2.35 -7.96 29.19zm48.05 -26.48l1.93 1.05c8.79,4.78 16.17,3.27 22.08,-7.59 5.65,-10.39 4.45,-18.99 -5.61,-24.45 -5.8,-3.15 -10.48,-3.28 -17.52,2.22l-7.22 5.66c-3.94,3.12 -6.21,3.01 -9.14,1.42 -2.8,-1.52 -4.91,-4.14 -2.56,-8.47 1.99,-3.66 5.42,-3.79 9.89,-1.36l5 -9.19 -1.33 -0.72c-9.13,-4.96 -16.16,-0.76 -20.8,7.77 -4.92,9.06 -3.27,17.29 5.99,22.33 7.93,4.31 13.6,2.3 21.17,-4.64 5.64,-5.13 8.43,-6.46 12.76,-4.11 4,2.17 4.34,5.99 2.75,8.92 -2.75,5.06 -6.31,4.77 -10.77,2.35l-1.4 -0.76 -5.22 9.6z"/>
  <path class="fil8" d="M1498.88 3708.23l7.64 -4.66 -10.08 -16.51 38.58 -23.55 -5.69 -9.32 -46.21 28.21 15.77 25.83zm0.55 0.9l5.93 9.71 11.08 -3.83 7.51 12.3 -8.47 8.1 5.93 9.71 38.75 -40.45 -7.04 -11.52 -53.68 15.98zm49.13 -5.39l0.08 0.13 -18.05 17.15 -5.53 -9.06 23.5 -8.22zm21.02 16.39l-46.21 28.21 5.69 9.32 13.72 -8.38 7.34 0.23 -13.15 21.09 6.4 10.49 17.87 -30.1 27.47 0.47 -6.16 -10.1 -25.7 -0.48 -0.08 -0.13 18.51 -11.3 -5.69 -9.32zm21.22 34.76l-46.21 28.21 16.16 26.47 7.64 -4.66 -10.47 -17.15 12.43 -7.59 9.48 15.54 7.64 -4.66 -9.48 -15.54 10.87 -6.64 10.08 16.5 7.64 -4.66 -15.77 -25.82zm-13.88 48.72l-1.88 1.15c-8.54,5.22 -10.93,12.36 -4.49,22.91 6.16,10.1 14.2,13.36 23.97,7.4 5.63,-3.44 8.08,-7.42 6.86,-16.27l-1.28 -9.08c-0.73,-4.98 0.51,-6.88 3.36,-8.62 2.72,-1.66 6.04,-2.18 8.61,2.03 2.17,3.56 0.56,6.59 -3.78,9.24l5.45 8.93 1.3 -0.79c8.87,-5.41 8.75,-13.61 3.69,-21.89 -5.37,-8.8 -13.33,-11.5 -22.32,-6.01 -7.7,4.7 -8.8,10.62 -6.59,20.64 1.62,7.45 1.37,10.54 -2.84,13.11 -3.88,2.37 -7.36,0.76 -9.1,-2.09 -3,-4.92 -0.97,-7.85 3.37,-10.49l1.36 -0.83 -5.69 -9.32zm13.15 53.99l46.21 -28.21 -5.69 -9.32 -46.21 28.21 5.69 9.32zm4.5 7.38l8.97 14.69c7.55,12.36 17.06,11.35 33.43,1.35 13.59,-8.3 21.04,-16.04 13.13,-28.98l-9.33 -15.28 -46.21 28.21zm45.04 -14.71l2.41 3.95c4.35,7.12 -0.51,11.24 -11,17.64 -12.56,7.67 -17.43,8.86 -21.38,2.39l-2.53 -4.14 32.49 -19.84zm23.58 23.19l-46.21 28.21 16.16 26.47 7.64 -4.66 -10.47 -17.15 12.43 -7.59 9.49 15.54 7.64 -4.66 -9.49 -15.54 10.87 -6.64 10.08 16.5 7.64 -4.66 -15.77 -25.82z"/>
  <path class="fil8" d="M1893.67 4380.65l50.17 -20.37 -4.11 -10.12 -50.17 20.37 4.11 10.12zm17.44 -1.56l-1.99 0.93c-9.07,4.25 -12.23,11.08 -6.98,22.28 5.02,10.71 12.65,14.84 23.01,9.99 5.98,-2.8 8.85,-6.49 8.61,-15.42l-0.28 -9.17c-0.18,-5.02 1.26,-6.78 4.28,-8.2 2.88,-1.35 6.25,-1.5 8.34,2.96 1.77,3.78 -0.17,6.61 -4.77,8.77l4.44 9.48 1.37 -0.64c9.41,-4.4 10.19,-12.56 6.08,-21.35 -4.37,-9.34 -11.98,-12.89 -21.53,-8.42 -8.17,3.83 -9.92,9.58 -8.82,19.79 0.79,7.58 0.2,10.62 -4.26,12.71 -4.12,1.93 -7.39,-0.05 -8.81,-3.08 -2.44,-5.22 -0.1,-7.91 4.5,-10.06l1.44 -0.68 -4.63 -9.89zm16.96 71.21l7.88 -4.24 -9.17 -17.02 39.79 -21.44 -5.18 -9.61 -47.66 25.69 14.36 26.64zm0.38 1.04l6.28 9.48 10.93 -4.24 7.96 12.01 -8.16 8.41 6.28 9.48 37.22 -41.86 -7.46 -11.25 -53.05 17.96zm48.9 -7.21l0.08 0.13 -17.4 17.81 -5.86 -8.85 23.18 -9.09zm18.37 11.51l-42.02 34.15 6.31 7.77 29.43 -23.91 0.1 0.12 -21.01 34.27 7.84 9.65 42.02 -34.15 -6.31 -7.77 -28.78 23.39 -0.1 -0.12 20.46 -33.63 -7.94 -9.77zm-14.02 68.17l11.73 12.6c9.87,10.6 18.98,7.71 33.03,-5.37 11.65,-10.85 17.4,-19.93 7.06,-31.03l-12.19 -13.1 -39.63 36.89zm41.19 -23.42l3.15 3.39c5.68,6.11 1.75,11.12 -7.24,19.49 -10.77,10.02 -15.3,12.17 -20.47,6.62l-3.31 -3.55 27.86 -25.94zm2.41 66.32l14.27 11.65c9.87,8.06 17.75,5 23.12,-1.58 4.56,-5.58 4.44,-11.55 0.33,-15.99l0.1 -0.12c5.13,2.23 10.13,0.54 13.83,-3.98 6.57,-8.05 3.69,-14.71 -3.24,-20.36l-14.16 -11.56 -34.24 41.94zm37.62 -28.81l3.05 2.49c4.17,3.41 4.91,6.46 1.65,10.45 -3.21,3.93 -6.62,3.8 -11.26,0l-2.41 -1.97 8.97 -10.98zm-13.77 16.86l3.64 2.97c3.7,3.02 5.31,6.69 1.33,11.56 -3.98,4.87 -7.94,4.09 -11.99,0.78l-3.29 -2.69 10.31 -12.63zm39.18 -7.17l-29.88 45.16 25.87 17.12 4.94 -7.46 -16.76 -11.09 8.03 -12.14 15.18 10.04 4.94 -7.46 -15.18 -10.04 7.03 -10.62 16.13 10.67 4.94 -7.46 -25.24 -16.7zm27.63 18.03l-26.91 46.98 8.69 4.98 18.85 -32.9 0.13 0.07 -7.27 39.54 10.79 6.18 26.91 -46.98 -8.69 -4.98 -18.43 32.18 -0.13 -0.08 6.98 -38.74 -10.92 -6.26zm11.7 68.21l15.65 7.16c13.17,6.02 20.49,-0.13 28.47,-17.58 6.62,-14.48 8.46,-25.06 -5.33,-31.37l-16.28 -7.44 -22.52 49.24zm29.11 -37.39l4.21 1.92c7.59,3.47 5.86,9.6 0.75,20.77 -6.12,13.38 -9.49,17.09 -16.38,13.94l-4.41 -2.02 15.83 -34.62z"/>
  <path class="fil8" d="M2764.02 4534.58l-0.24 2.19c-1.08,9.95 3.11,16.2 15.4,17.54 11.76,1.28 19.26,-3.09 20.5,-14.47 0.72,-6.56 -0.95,-10.94 -8.7,-15.37l-7.97 -4.53c-4.39,-2.46 -5.14,-4.6 -4.78,-7.92 0.34,-3.17 1.96,-6.12 6.86,-5.58 4.15,0.45 5.56,3.58 5.01,8.63l10.4 1.14 0.16 -1.51c1.13,-10.33 -5.43,-15.24 -15.08,-16.29 -10.25,-1.12 -17.24,3.54 -18.39,14.01 -0.98,8.97 3.03,13.45 12.32,17.82 6.89,3.27 9.18,5.35 8.65,10.25 -0.49,4.52 -3.89,6.29 -7.21,5.93 -5.73,-0.63 -6.81,-4.02 -6.26,-9.08l0.17 -1.58 -10.86 -1.18zm39.37 21.48l10.72 2.07 4.57 -23.6 12.51 2.42 -4.57 23.6 10.72 2.07 10.29 -53.16 -10.72 -2.08 -3.93 20.33 -12.51 -2.42 3.93 -20.33 -10.72 -2.08 -10.28 53.16zm60.84 -41.75l-19.55 50.49 28.92 11.2 3.23 -8.34 -18.74 -7.26 5.26 -13.58 16.97 6.57 3.23 -8.34 -16.97 -6.57 4.6 -11.88 18.04 6.98 3.23 -8.34 -28.22 -10.93zm41.39 77.51l4.01 -8 -17.29 -8.66 20.23 -40.42 -9.77 -4.89 -24.23 48.42 27.06 13.54zm27.95 21.4l5.48 -7.07 -15.29 -11.84 27.68 -35.73 -8.63 -6.69 -33.16 42.8 23.92 18.53zm36.19 -2.51c-12.43,10.79 -19.9,19.99 -9.17,32.36 10.74,12.37 20.9,6.26 33.33,-4.53 12.43,-10.79 19.9,-19.99 9.17,-32.36 -10.74,-12.37 -20.9,-6.26 -33.33,4.53zm7.16 8.25c10.94,-9.5 15.87,-12.37 20.1,-7.5 4.23,4.87 0.69,9.35 -10.25,18.84 -11,9.55 -15.87,12.37 -20.1,7.51 -4.22,-4.87 -0.74,-9.3 10.25,-18.84zm4.46 53.7l46.88 -27.09 -5.46 -9.45 -46.88 27.09 5.46 9.46zm16.55 34.59l8.13 -3.75 -8.1 -17.56 41.05 -18.92 -4.57 -9.92 -49.17 22.67 12.67 27.48zm16.74 -1.45l-2.13 0.56c-9.68,2.54 -14.03,8.69 -10.89,20.65 3,11.44 9.76,16.88 20.83,13.98 6.38,-1.67 9.88,-4.79 11.25,-13.61l1.38 -9.07c0.73,-4.98 2.47,-6.45 5.69,-7.29 3.08,-0.81 6.42,-0.35 7.67,4.42 1.06,4.03 -1.36,6.47 -6.27,7.76l2.65 10.12 1.47 -0.38c10.05,-2.63 12.3,-10.51 9.84,-19.9 -2.61,-9.98 -9.46,-14.85 -19.65,-12.17 -8.73,2.29 -11.48,7.63 -12.25,17.87 -0.59,7.6 -1.72,10.48 -6.49,11.73 -4.4,1.15 -7.26,-1.39 -8.11,-4.62 -1.46,-5.58 1.33,-7.8 6.24,-9.08l1.54 -0.4 -2.77 -10.56zm31.7 96.4c7.89,-0.08 19.32,-1.34 19.16,-16.96 -0.18,-16.38 -11.88,-18.3 -28.33,-18.12 -16.46,0.18 -28.11,2.35 -27.93,18.73 0.15,14.33 10.27,17.1 21.95,16.98l-0.12 -10.92c-11.68,0.13 -13.76,-2.74 -13.8,-6.68 -0.05,-4.7 2.88,-7.01 19.26,-7.18 15.31,-0.16 20.86,1.07 20.92,6.6 0.05,4.93 -3.34,6.56 -11.23,6.64l0.12 10.92zm-9.33 9.89c-16.28,-2.39 -28.13,-2.06 -30.51,14.15 -2.38,16.21 8.88,19.93 25.16,22.32 16.28,2.39 28.13,2.06 30.51,-14.15 2.38,-16.21 -8.88,-19.93 -25.16,-22.32zm-1.58 10.8c14.33,2.1 19.73,3.97 18.79,10.35 -0.94,6.38 -6.64,6.61 -20.97,4.51 -14.41,-2.11 -19.73,-3.97 -18.79,-10.35 0.94,-6.38 6.57,-6.62 20.97,-4.51zm8.67 52.12l-1.53 4.92c-1.46,4.71 -4.64,6.5 -9.42,5.02 -5.58,-1.73 -6.87,-5.23 -5.32,-10.23l1.35 -4.35 14.92 4.63zm-40.8 -24.09l-3.24 10.43 21.87 6.79 -1.73 5.58c-1.3,4.2 -4.33,5.25 -8.43,4.14l-10.01 -2.79c-2.05,-0.56 -4.07,-0.95 -5.84,-0.38l-3.51 11.3 0.44 0.13c1.62,-1.64 4.54,-1.05 9.99,0.56 10.98,3.25 15.23,3.37 18.38,-3.43l0.14 0.04c-0.59,6.25 3.2,10.44 10.07,12.58 8.84,2.74 14.94,-1.08 17.6,-9.63l5.98 -19.27 -51.71 -16.05zm35.3 64.01l-48.55 -23.97 -4.43 8.98 34 16.79 -0.07 0.13 -39.91 -4.82 -5.51 11.15 48.55 23.97 4.43 -8.98 -33.25 -16.42 0.07 -0.14 39.09 4.59 5.57 -11.29zm-24.87 46.1l-43.98 -31.58 -18.09 25.19 7.27 5.22 11.72 -16.32 11.83 8.49 -10.62 14.78 7.27 5.22 10.62 -14.78 10.35 7.43 -11.28 15.71 7.27 5.22 17.65 -24.58zm-41.07 38.46l-3.68 3.61c-3.52,3.45 -7.17,3.52 -10.67,-0.05 -4.09,-4.17 -3.57,-7.87 0.17,-11.53l3.25 -3.19 10.94 11.15zm-24.48 -40.57l-7.8 7.64 16.03 16.35 -4.17 4.09c-3.14,3.08 -6.3,2.57 -9.38,-0.36l-7.49 -7.21c-1.54,-1.46 -3.14,-2.77 -4.96,-3.11l-8.45 8.28 0.32 0.32c2.2,-0.67 4.49,1.23 8.53,5.23 8.13,8.07 11.8,10.2 17.8,5.7l0.11 0.11c-3.48,5.22 -2.14,10.7 2.9,15.85 6.48,6.61 13.67,6.14 20.06,-0.12l14.41 -14.12 -37.91 -38.66z"/>
  <path class="fil8" d="M1549.62 4571.09l-3.69 -18.05c-2.55,-12.48 -10.59,-15.1 -18.91,-13.4 -7.06,1.44 -10.74,6.14 -10.36,12.18l-0.15 0.03c-2.56,-4.97 -7.51,-6.83 -13.23,-5.66 -10.18,2.08 -12.16,9.06 -10.36,17.83l3.66 17.91 53.05 -10.84zm-47.36 -1.47l-0.79 -3.87c-1.08,-5.28 0.28,-8.11 5.33,-9.14 4.98,-1.02 7.53,1.25 8.73,7.12l0.62 3.04 -13.89 2.84zm21.32 -4.36l-0.94 -4.61c-0.96,-4.68 0.12,-8.54 6.28,-9.8 6.17,-1.26 8.74,1.85 9.78,6.98l0.85 4.16 -15.98 3.26zm-31.01 -32.84l-1.81 -4.83c-1.73,-4.62 -0.31,-7.98 4.38,-9.73 5.47,-2.04 8.64,-0.07 10.47,4.83l1.59 4.26 -14.63 5.47zm47.01 -5.92l-3.83 -10.23 -21.45 8.02 -2.05 -5.47c-1.54,-4.12 0.21,-6.8 4.14,-8.43l9.63 -3.92c1.96,-0.81 3.8,-1.75 4.85,-3.27l-4.14 -11.08 -0.43 0.16c-0.28,2.29 -2.94,3.61 -8.24,5.67 -10.67,4.15 -14.11,6.65 -12.43,13.96l-0.14 0.05c-3.36,-5.3 -8.91,-6.3 -15.66,-3.78 -8.67,3.24 -11.16,10 -8.02,18.38l7.06 18.9 50.72 -18.96zm-21.69 -52.81l-48.96 23.11 4.66 9.87 48.96 -23.11 -4.66 -9.87zm-50.7 18.75l7.78 -4.42 -5.84 -10.29 39.3 -22.31 -5.39 -9.5 -39.3 22.31 -5.84 -10.29 -7.78 4.42 17.07 30.07zm-18.02 -31.46l7.46 -4.93 -6.52 -9.87 37.71 -24.91 -6.02 -9.11 -37.71 24.91 -6.52 -9.87 -7.46 4.93 19.06 28.85zm-22.22 -32.67l43.3 -32.51 -18.63 -24.8 -7.15 5.37 12.07 16.07 -11.64 8.74 -10.93 -14.55 -7.15 5.37 10.93 14.55 -10.19 7.65 -11.61 -15.47 -7.15 5.37 18.17 24.2zm-21.95 -28.75l40.9 -35.48 -6.56 -7.56 -28.64 24.85 -0.1 -0.11 19.89 -34.93 -8.15 -9.39 -40.9 35.48 6.56 7.56 28.01 -24.3 0.1 0.12 -19.36 34.27 8.25 9.51zm-37.48 -42.13l6.79 7.35 8.69 -8.03 -2.68 -2.89 0.89 -0.82c2.06,-1.91 4.94,-2.81 7.08,-1.17l3.9 -3.6c-6.06,-5.44 -11.53,-2.98 -17.43,2.48l-7.24 6.69zm21.11 -32.19l1.55 -1.56c7.05,-7.11 7.67,-14.61 -1.11,-23.32 -8.4,-8.33 -16.98,-9.59 -25.05,-1.46 -4.65,4.68 -6.08,9.14 -2.77,17.44l3.41 8.51c1.89,4.66 1.15,6.8 -1.2,9.17 -2.24,2.26 -5.35,3.56 -8.85,0.09 -2.96,-2.94 -2.12,-6.27 1.46,-9.87l-7.43 -7.37 -1.07 1.08c-7.32,7.38 -5.25,15.3 1.64,22.14 7.32,7.27 15.69,7.98 23.11,0.5 6.36,-6.41 6.01,-12.41 1.47,-21.62 -3.35,-6.85 -3.85,-9.91 -0.38,-13.4 3.2,-3.23 6.96,-2.49 9.33,-0.14 4.09,4.06 2.82,7.39 -0.76,11l-1.12 1.13 7.75 7.69z"/>
  <path class="fil8" d="M872.58 3402.06l8.91 0.61 1.31 -19.19 14.86 1.01 0.5 -7.3 -14.86 -1.01 0.71 -10.4 15.79 1.08 0.5 -7.3 -24.7 -1.68 -3.02 44.2zm29.87 -19.97c2.88,13.15 6.57,22.13 19.66,19.25 13.09,-2.87 12.68,-12.57 9.79,-25.72 -2.89,-13.15 -6.57,-22.13 -19.66,-19.25 -13.09,2.87 -12.68,12.56 -9.79,25.72zm8.73 -1.92c-2.54,-11.57 -2.67,-16.25 2.48,-17.38 5.15,-1.13 6.98,3.17 9.52,14.74 2.55,11.64 2.68,16.25 -2.47,17.38 -5.15,1.13 -6.97,-3.11 -9.53,-14.74zm28.82 1.05l0.82 1.6c3.75,7.28 9.44,9.65 18.43,5.02 8.6,-4.44 11.74,-10.8 7.45,-19.13 -2.47,-4.8 -5.58,-7.03 -12.87,-6.55l-7.49 0.51c-4.1,0.3 -5.59,-0.82 -6.84,-3.24 -1.19,-2.32 -1.42,-5.06 2.16,-6.91 3.03,-1.56 5.41,-0.07 7.32,3.63l7.61 -3.93 -0.57 -1.1c-3.89,-7.55 -10.59,-7.94 -17.65,-4.3 -7.5,3.87 -10.17,10.2 -6.22,17.87 3.38,6.56 8.14,7.81 16.45,6.59 6.18,-0.88 8.68,-0.5 10.53,3.09 1.71,3.31 0.19,6.05 -2.24,7.3 -4.19,2.16 -6.46,0.33 -8.37,-3.37l-0.6 -1.15 -7.94 4.09zm11.12 -39.92l4.76 5.56 7.35 -6.3 24.05 28.09 6.79 -5.81 -24.05 -28.09 7.35 -6.29 -4.76 -5.56 -21.49 18.4zm23.91 -20.61l33.97 28.43 16.29 -19.46 -5.62 -4.7 -10.55 12.61 -9.14 -7.64 9.56 -11.42 -5.61 -4.7 -9.56 11.42 -7.99 -6.69 10.15 -12.13 -5.61 -4.7 -15.89 18.98zm29.57 -27.14l2.19 -3.61c2.09,-3.44 4.98,-4.24 8.47,-2.11 4.08,2.48 4.41,5.52 2.19,9.17l-1.93 3.18 -10.92 -6.64zm27.59 27.24l4.64 -7.63 -16.01 -9.74 2.48 -4.08c1.87,-3.08 4.48,-3.3 7.51,-1.6l7.39 4.21c1.52,0.85 3.04,1.56 4.56,1.46l5.03 -8.27 -0.32 -0.2c-1.61,0.98 -3.81,-0.06 -7.82,-2.43 -8.07,-4.76 -11.41,-5.71 -15.26,-0.93l-0.11 -0.06c1.71,-4.84 -0.46,-8.92 -5.49,-11.98 -6.47,-3.93 -12.07,-2.12 -15.88,4.14l-8.58 14.1 37.85 23.02zm-15.37 -62.76l-3.51 7.4 8.74 4.15 1.38 -2.91 0.9 0.42c2.08,0.98 3.64,2.89 3.05,5.02l3.92 1.86c2.28,-6.26 -1.26,-9.66 -7.2,-12.48l-7.29 -3.46zm32.32 2.97l1.67 0.66c7.61,3.02 13.46,1.07 17.19,-8.33 3.57,-9 1.75,-15.86 -6.96,-19.32 -5.02,-1.99 -8.83,-1.64 -14.01,3.52l-5.31 5.3c-2.89,2.93 -4.75,3.06 -7.29,2.05 -2.42,-0.96 -4.4,-2.88 -2.91,-6.63 1.26,-3.17 4.04,-3.6 7.9,-2.07l3.16 -7.96 -1.15 -0.46c-7.9,-3.13 -13.2,0.97 -16.13,8.35 -3.11,7.84 -0.96,14.37 7.05,17.55 6.87,2.72 11.27,0.54 16.74,-5.84 4.08,-4.72 6.22,-6.08 9.96,-4.59 3.46,1.37 4.12,4.43 3.11,6.97 -1.74,4.38 -4.65,4.49 -8.52,2.96l-1.21 -0.48 -3.29 8.31z"/>
  <g id="_2360738148688">
   <path class="fil8" d="M1142.83 1863.16c3.28,0 6.18,-0.87 8.72,-2.61 2.53,-1.74 4.67,-4.12 6.41,-7.15 1.74,-3.03 3.03,-6.66 3.87,-10.88 0.84,-4.22 1.27,-8.82 1.27,-13.78 0,-4.47 -0.42,-8.74 -1.27,-12.82 -0.84,-4.07 -2.11,-7.63 -3.8,-10.66 -1.69,-3.03 -3.83,-5.46 -6.41,-7.3 -2.58,-1.84 -5.56,-2.76 -8.94,-2.76 -3.38,0 -6.36,0.89 -8.94,2.68 -2.58,1.79 -4.74,4.22 -6.48,7.3 -1.74,3.08 -3.03,6.68 -3.88,10.8 -0.84,4.12 -1.27,8.52 -1.27,13.19 0,4.77 0.45,9.24 1.34,13.41 0.9,4.17 2.21,7.77 3.95,10.8 1.74,3.03 3.9,5.42 6.48,7.15 2.58,1.74 5.51,2.61 8.79,2.61l0.15 0zm-1.04 17.73c-6.86,0 -12.94,-1.34 -18.26,-4.02 -5.32,-2.68 -9.78,-6.33 -13.41,-10.95 -3.62,-4.62 -6.36,-10.06 -8.2,-16.32 -1.84,-6.26 -2.76,-12.92 -2.76,-19.97 0,-7.35 1.02,-14.21 3.05,-20.56 2.04,-6.36 4.97,-11.87 8.79,-16.54 3.82,-4.67 8.44,-8.34 13.86,-11.03 5.41,-2.68 11.55,-4.02 18.4,-4.02 7.25,0 13.56,1.39 18.93,4.17 5.36,2.78 9.81,6.51 13.34,11.18 3.53,4.67 6.16,10.06 7.9,16.17 1.74,6.11 2.61,12.44 2.61,19 0,8.64 -1.07,16.24 -3.2,22.8 -2.14,6.56 -5.14,12.07 -9.02,16.54 -3.88,4.47 -8.52,7.85 -13.93,10.13 -5.42,2.28 -11.4,3.43 -17.96,3.43l-0.15 0z"/>
   <path id="1" class="fil8" d="M1267.84 1856.3c0,4.57 0.05,8.77 0.15,12.59 0.1,3.82 0.25,7.33 0.45,10.51l-18.78 0 -1.04 -9.54 -0.45 0c-0.8,1.19 -1.79,2.43 -2.98,3.72 -1.19,1.29 -2.63,2.48 -4.32,3.58 -1.69,1.09 -3.68,1.99 -5.96,2.68 -2.28,0.7 -4.87,1.04 -7.75,1.04 -7.25,0 -13.01,-2.48 -17.29,-7.45 -4.27,-4.97 -6.41,-12.87 -6.41,-23.69l0 -43.22 21.76 0 0 39.94c0,5.27 0.8,9.36 2.39,12.29 1.59,2.93 4.17,4.4 7.75,4.4 2.68,0 4.82,-0.74 6.41,-2.24 1.59,-1.49 2.73,-3.08 3.43,-4.77 0.6,-1.29 0.89,-3.03 0.89,-5.22l0 -44.41 21.76 0 0 49.77z"/>
   <polygon id="2" class="fil8" points="1288.53,1774.34 1310.29,1774.34 1310.29,1879.4 1288.53,1879.4 "/>
   <path id="3" class="fil8" d="M1355.72 1787.01l0 19.52 15.65 0 0 15.8 -15.65 0 0 28.46c0,4.47 0.67,7.62 2.01,9.46 1.34,1.84 3.5,2.76 6.48,2.76 1.39,0 2.51,-0.05 3.35,-0.15 0.85,-0.1 1.81,-0.25 2.91,-0.45l0.15 16.54c-1.39,0.5 -3.3,0.92 -5.74,1.27 -2.43,0.35 -5.14,0.52 -8.12,0.52 -3.48,0 -6.61,-0.52 -9.39,-1.56 -2.78,-1.04 -5.07,-2.46 -6.86,-4.25 -2.09,-2.09 -3.65,-4.82 -4.69,-8.2 -1.04,-3.38 -1.57,-7.75 -1.57,-13.11l0 -31.29 -9.39 0 0 -15.8 9.39 0 0 -13.41 21.46 -6.11z"/>
   <path id="4" class="fil8" d="M1417.69 1865.09c1.99,0 3.75,-0.57 5.29,-1.71 1.54,-1.14 2.83,-2.73 3.88,-4.77 1.04,-2.04 1.84,-4.39 2.38,-7.08 0.55,-2.68 0.82,-5.56 0.82,-8.64 0,-2.68 -0.22,-5.34 -0.67,-7.97 -0.45,-2.63 -1.17,-4.99 -2.16,-7.08 -0.99,-2.09 -2.29,-3.78 -3.88,-5.07 -1.59,-1.29 -3.53,-1.94 -5.81,-1.94 -2.38,0 -4.42,0.64 -6.11,1.94 -1.69,1.29 -3.03,2.98 -4.02,5.07 -0.99,2.09 -1.71,4.45 -2.16,7.08 -0.45,2.63 -0.67,5.29 -0.67,7.97 0,3.18 0.27,6.11 0.82,8.79 0.55,2.68 1.37,5.02 2.46,7 1.09,1.99 2.43,3.55 4.02,4.69 1.59,1.14 3.48,1.71 5.66,1.71l0.15 0zm-0.6 15.8c-5.07,0 -9.71,-0.85 -13.93,-2.53 -4.22,-1.69 -7.87,-4.15 -10.95,-7.38 -3.08,-3.23 -5.49,-7.18 -7.23,-11.85 -1.74,-4.67 -2.61,-9.94 -2.61,-15.8 0,-6.06 0.9,-11.45 2.68,-16.17 1.79,-4.72 4.27,-8.72 7.45,-12 3.18,-3.28 6.95,-5.79 11.32,-7.53 4.37,-1.74 9.14,-2.61 14.31,-2.61 5.16,0 9.84,0.89 14.01,2.68 4.17,1.79 7.75,4.32 10.73,7.6 2.98,3.28 5.29,7.23 6.93,11.85 1.64,4.62 2.46,9.71 2.46,15.27 0,6.95 -1.04,12.87 -3.13,17.73 -2.09,4.87 -4.79,8.84 -8.12,11.92 -3.33,3.08 -7.08,5.32 -11.25,6.71 -4.17,1.39 -8.34,2.09 -12.52,2.09l-0.15 0z"/>
   <path id="5" class="fil8" d="M1469.08 1829.48c0,-4.47 -0.05,-8.57 -0.15,-12.29 -0.1,-3.73 -0.25,-7.28 -0.45,-10.66l18.78 0 1.04 9.54 0.45 0c0.8,-1.19 1.84,-2.46 3.13,-3.8 1.29,-1.34 2.81,-2.53 4.55,-3.58 1.74,-1.04 3.75,-1.91 6.03,-2.61 2.28,-0.7 4.77,-1.04 7.45,-1.04 7.35,0 13.21,2.53 17.58,7.6 4.37,5.07 6.56,12.57 6.56,22.5l0 44.26 -21.76 0 0 -42.02c0,-4.17 -0.77,-7.65 -2.31,-10.43 -1.54,-2.78 -4.2,-4.17 -7.97,-4.17 -2.68,0 -4.87,0.8 -6.56,2.38 -1.69,1.59 -2.93,3.43 -3.73,5.51 -0.6,1.49 -0.89,3.48 -0.89,5.96l0 42.77 -21.76 0 0 -49.92z"/>
   <path class="fil10" d="M1577.47 1825.9c1.57,0.3 3.63,0.45 6.18,0.45 5.59,0 9.93,-1.47 13.01,-4.4 3.11,-2.93 4.65,-6.88 4.65,-11.85 0,-4.57 -1.34,-8.22 -4.05,-10.95 -2.71,-2.73 -6.7,-4.1 -11.99,-4.1 -3.53,0 -6.13,0.25 -7.8,0.74l0 30.1zm-21.76 -45.6c3.28,-0.6 7.2,-1.09 11.77,-1.49 4.57,-0.4 9.84,-0.6 15.8,-0.6 6.66,0 12.44,0.62 17.36,1.86 4.92,1.24 9.07,3.3 12.44,6.18 3.18,2.58 5.64,5.84 7.38,9.76 1.74,3.92 2.61,8.27 2.61,13.04 0,5.07 -0.77,9.61 -2.31,13.63 -1.54,4.02 -3.73,7.48 -6.61,10.36 -3.65,3.48 -8.12,6.06 -13.36,7.75 -5.24,1.69 -10.85,2.53 -16.79,2.53 -2.58,0 -4.74,-0.15 -6.53,-0.45l0 36.51 -21.76 0 0 -99.1z"/>
   <path id="1" class="fil10" d="M1672.82 1844.68c-2.58,0 -5.04,0.2 -7.38,0.6 -2.34,0.4 -4.4,1.04 -6.18,1.94 -1.79,0.9 -3.2,2.09 -4.25,3.58 -1.04,1.49 -1.57,3.38 -1.57,5.66 0,3.08 0.82,5.34 2.46,6.78 1.64,1.44 3.6,2.16 5.89,2.16 2.48,0 4.69,-0.72 6.63,-2.16 1.94,-1.44 3.3,-3.3 4.1,-5.59 0.2,-0.5 0.3,-1.07 0.3,-1.71 0,-0.65 0,-1.27 0,-1.86l0 -9.39zm21.16 17.44c0,3.28 0.07,6.43 0.22,9.46 0.15,3.03 0.47,5.64 0.97,7.82l-19.52 0 -1.34 -7.3 -0.3 0c-2.29,2.88 -5.09,5.07 -8.42,6.56 -3.33,1.49 -7.03,2.24 -11.1,2.24 -3.48,0 -6.58,-0.6 -9.31,-1.79 -2.73,-1.19 -5.04,-2.81 -6.93,-4.84 -1.89,-2.04 -3.35,-4.39 -4.4,-7.08 -1.04,-2.68 -1.56,-5.51 -1.56,-8.49 0,-4.77 0.99,-8.89 2.98,-12.37 1.99,-3.48 4.77,-6.36 8.34,-8.64 3.58,-2.28 7.8,-3.97 12.67,-5.07 4.87,-1.09 10.18,-1.64 15.95,-1.64l0 -1.19c0,-1.09 -0.17,-2.21 -0.52,-3.35 -0.35,-1.14 -0.99,-2.16 -1.94,-3.06 -0.94,-0.89 -2.21,-1.64 -3.8,-2.23 -1.59,-0.6 -3.63,-0.9 -6.11,-0.9 -3.48,0 -6.86,0.5 -10.13,1.49 -3.28,0.99 -6.11,2.18 -8.49,3.58l-3.88 -14.01c2.39,-1.39 5.84,-2.78 10.36,-4.17 4.52,-1.39 9.91,-2.09 16.17,-2.09 5.96,0 10.88,0.84 14.75,2.53 3.87,1.69 6.95,3.97 9.24,6.86 2.28,2.88 3.87,6.18 4.77,9.91 0.89,3.72 1.34,7.67 1.34,11.85l0 25.93z"/>
   <path id="2" class="fil10" d="M1714.37 1829.93c0,-4.87 -0.05,-9.19 -0.15,-12.97 -0.1,-3.78 -0.25,-7.25 -0.45,-10.43l18.63 0 0.9 12.67 0.6 0c1.79,-4.97 4.45,-8.57 7.97,-10.8 3.53,-2.24 6.93,-3.35 10.21,-3.35 0.99,0 1.81,0.02 2.46,0.07 0.64,0.05 1.37,0.17 2.16,0.37l0 20.56c-0.79,-0.2 -1.64,-0.32 -2.53,-0.37 -0.9,-0.05 -1.94,-0.07 -3.13,-0.07 -3.48,0 -6.53,0.94 -9.17,2.83 -2.63,1.89 -4.35,4.67 -5.14,8.34 -0.4,1.29 -0.6,3.18 -0.6,5.66l0 36.96 -21.76 0 0 -49.47z"/>
   <path id="3" class="fil10" d="M1792.59 1837.67l0.3 0c0.8,-1.69 1.59,-3.3 2.39,-4.84 0.79,-1.54 1.59,-3.01 2.38,-4.4l13.11 -21.91 25.48 0 -23.69 29.95 26.53 42.92 -26.08 0 -15.35 -29.95 -5.07 7 0 22.95 -21.76 0 0 -105.06 21.76 0 0 63.33z"/>
   <polygon class="fil11" points="1940.63,1755.94 1890.36,1756.96 1902.63,1699.7 1959.72,1699.36 1948.81,1752.87 2021.41,1752.87 2005.3,1828.54 2096.65,1828.11 2115.82,1740.94 2081.4,1740.94 2090.26,1700.38 2133.21,1700.38 2125.03,1736.85 2213.31,1736.51 2193.2,1831.6 2104.24,1831.6 2082.42,1932.83 1974.72,1932.83 1997.55,1830.92 1924.61,1830.92 "/>
  </g>
 </g>
</svg>
